<svg id="Layer_1" data-name="Layer 1" xmlns="http://www.w3.org/2000/svg" viewBox="0 0 32 32"><title>autowasslogo_only</title><path fill="#900" fill-rule="evenodd" d="M12.16,19.28,16,21.22c.32.16.34.5,0,.75-1.18,1-2.33,2-3.45,3a1.06,1.06,0,0,1-1.09.17L7.61,23.23a.43.43,0,0,1-.08-.76q1.69-1.53,3.5-3a1.14,1.14,0,0,1,1.13-.16M3.27,14.39l1.52.76c.32.16.31.49,0,.74-.49.39-1,.79-1.44,1.18a1.14,1.14,0,0,1-1.13.17L.71,16.47c-.33-.16-.35-.5,0-.75.48-.39,1-.79,1.46-1.18A1.2,1.2,0,0,1,3.27,14.39ZM26.88,13l4.44,2.26c.31.16.25.46-.13.69C29.41,17,27.69,18.12,26,19.24a1.28,1.28,0,0,1-1.19.14L20.3,17.09c-.32-.16-.29-.48.06-.71q2.52-1.68,5.25-3.28A1.49,1.49,0,0,1,26.88,13Zm-2.1-7.1c.9.47,1.8.94,2.71,1.4.29.15.17.44-.26.65-1.32.62-2.6,1.27-3.86,1.92a1.6,1.6,0,0,1-1.29.1l-2.8-1.42c-.31-.16-.21-.46.2-.67q1.92-1,4-1.89A1.82,1.82,0,0,1,24.78,5.88ZM10.53,7.39l2,1c.31.16.23.46-.15.69-.81.47-1.6.94-2.37,1.42a1.43,1.43,0,0,1-1.23.13l-2-1c-.32-.15-.28-.47.09-.7.79-.47,1.59-.94,2.41-1.4A1.59,1.59,0,0,1,10.53,7.39Zm4.3,3L19.9,13c.31.16.27.47-.1.7C17.85,14.92,16,16.2,14.21,17.5a1.25,1.25,0,0,1-1.17.15L7.84,15c-.32-.16-.32-.49,0-.73q2.73-1.94,5.72-3.78A1.47,1.47,0,0,1,14.83,10.41Z"/></svg>
