<?xml version="1.0" encoding="iso-8859-1"?>
<!-- Generator: Adobe Illustrator 19.0.0, SVG Export Plug-In . SVG Version: 6.00 Build 0)  -->
<svg version="1.1" id="Capa_1" xmlns="http://www.w3.org/2000/svg" xmlns:xlink="http://www.w3.org/1999/xlink" x="0px" y="0px"
	 viewBox="0 0 508.1 508.1" style="enable-background:new 0 0 508.1 508.1;" xml:space="preserve">
<g>
	<g>
		<path d="M450.6,122.95H327.7v-41c0-13.6-11-24.6-24.6-24.6h-98.3c-13.6,0-24.6,11-24.6,24.6v41h-41v-32.8H73.7v32.8H57.4
			c-31.7,0-57.4,25.7-57.4,57.4v213c0,31.6,25.7,57.4,57.4,57.4h393.3c31.6,0,57.4-25.7,57.4-57.4v-213
			C508,148.65,482.3,122.95,450.6,122.95z M196.6,81.95c0-4.5,3.7-8.2,8.2-8.2h98.3c4.5,0,8.2,3.7,8.2,8.2v41H196.6V81.95z
			 M90.1,106.55h32.8v16.4H90.1V106.55z M491.7,393.35h-0.1c0,22.6-18.4,41-41,41H57.4c-22.6,0-41-18.4-41-41v-213
			c0-22.6,18.4-41,41-41h393.3c22.6,0,41,18.4,41,41V393.35z"/>
	</g>
</g>
<g>
	<g>
		<path d="M254,180.35c-58.7,0-106.5,47.8-106.5,106.5s47.8,106.5,106.5,106.5s106.5-47.8,106.5-106.5
			C360.5,228.05,312.7,180.35,254,180.35z M254,376.95c-49.7,0-90.1-40.4-90.1-90.1s40.4-90.1,90.1-90.1s90.1,40.4,90.1,90.1
			S303.7,376.95,254,376.95z"/>
	</g>
</g>
<g>
	<g>
		<path d="M180.3,286.85h16.4c0-31.6,25.7-57.4,57.4-57.4v-16.4C213.3,213.05,180.3,246.15,180.3,286.85z"/>
	</g>
</g>
<g>
	<g>
		<path d="M409.7,172.05v49.2h49.2v-49.2H409.7z M442.5,204.95h-16.4v-16.4h16.4V204.95z"/>
	</g>
</g>
<g>
</g>
<g>
</g>
<g>
</g>
<g>
</g>
<g>
</g>
<g>
</g>
<g>
</g>
<g>
</g>
<g>
</g>
<g>
</g>
<g>
</g>
<g>
</g>
<g>
</g>
<g>
</g>
<g>
</g>
</svg>
