<svg height="512" viewBox="0 0 64 64" width="512" xmlns="http://www.w3.org/2000/svg"><g id="Tow_Truck" data-name="Tow Truck"><g fill="#bddbff"><path d="m39 28v14h-4v-15.86z"/><path d="m39.9 24h-.9v4l-4-1.86-28-13.06-.63-.29 1.69-3.63z"/><path d="m31 34v4h-3a2 2 0 0 0 -4 0h-14a2 2 0 0 0 -4 0h-3v-5a1 1 0 0 1 1-1h25.01z"/><path d="m39 42v9h-22a5 5 0 0 0 -10 0h-3a1 1 0 0 1 -1-1v-8z"/><path d="m61 47v2a2.006 2.006 0 0 1 -2 2h-5a5 5 0 0 0 -10 0h-5v-27h4v11h17.84a3.773 3.773 0 0 1 .16 1.11v2.89h-5a1 1 0 0 0 -1 1v2a1 1 0 0 0 1 1h5z"/></g><path d="m42 38h4v2h-4z" fill="#3d9ae2"/><path d="m11 50h2v2h-2z" fill="#3d9ae2"/><path d="m48 50h2v2h-2z" fill="#3d9ae2"/><path d="m61.31 33.574-4.863-9a3 3 0 0 0 -2.64-1.574h-13.686l-31.639-14.746a.993.993 0 0 0 -.764-.033 1 1 0 0 0 -.565.517l-1.69 3.63a1 1 0 0 0 .485 1.332l.052.021v5.279a1 1 0 0 0 1 1 1 1 0 1 1 -1 1h-2a3 3 0 1 0 4-2.829v-3.518l26 12.119v14.228h-31a1 1 0 0 0 -1 1v8a2 2 0 0 0 2 2h2.09a5.993 5.993 0 0 0 11.82 0h25.18a5.993 5.993 0 0 0 11.82 0h4.09a3 3 0 0 0 3-3v-12.892a4.959 4.959 0 0 0 -.69-2.534zm-6.623-8.049 4.58 8.475h-15.267v-9h9.807a1 1 0 0 1 .88.525zm-46.143-15.036 29.456 13.729v2.213l-30.3-14.125zm27.456 17.216 2 .932v12.363h-2zm-24 27.295a4 4 0 1 1 4-4 4 4 0 0 1 -4 4zm0-10a6.006 6.006 0 0 0 -5.91 5h-2.09v-7h34v7h-20.09a6.006 6.006 0 0 0 -5.91-5zm37 10a4 4 0 1 1 4-4 4 4 0 0 1 -4 4zm10-5h-4.09a5.993 5.993 0 0 0 -11.82 0h-3.09v-25h2v10a1 1 0 0 0 1 1h16.985c0 .036.015.071.015.108v1.892h-4a2 2 0 0 0 -2 2v2a2 2 0 0 0 2 2h4v2h-3v2h3v1a1 1 0 0 1 -1 1zm1-10v2h-4v-2z" fill="#3d9ae2"/><path d="m10.816 39h12.368a2.982 2.982 0 0 0 5.632 0h2.184a1 1 0 0 0 1-1v-4a1 1 0 0 0 -.291-.706l-1.991-2a1 1 0 0 0 -.709-.294h-1.639l-6.719-5.759a1 1 0 0 0 -.651-.241h-8.764a2.983 2.983 0 0 0 -2.683 1.658l-2.171 4.342h-2.382a2 2 0 0 0 -2 2v5a1 1 0 0 0 1 1h2.184a2.982 2.982 0 0 0 5.632 0zm15.184 0a1 1 0 1 1 1-1 1 1 0 0 1 -1 1zm-1.7-8h-7.3v-4h2.63zm-13.958-3.447a.994.994 0 0 1 .894-.553h3.764v4h-6.382zm-6.342 5.447h24.594l1.406 1.413v2.587h-1.184a2.982 2.982 0 0 0 -5.632 0h-12.368a2.982 2.982 0 0 0 -5.632 0h-1.184zm4 6a1 1 0 1 1 1-1 1 1 0 0 1 -1 1z" fill="#3d9ae2"/></g></svg>