<svg xmlns="http://www.w3.org/2000/svg" viewBox="0 0 167.4 115.16"><defs><style>.cls-1{fill:#fff;}</style></defs><title>Asset 19</title><g id="Layer_2" data-name="Layer 2"><g id="Layer_1-2" data-name="Layer 1"><path class="cls-1" d="M166.32,51.69c-.17-2.73-6.51-8.58-8.33-10.38a81.9,81.9,0,0,0-6.83-5.68c-.85-.53-1-.53-1.24-1,0-.1-.07-.21-.11-.36l.13.35a4.25,4.25,0,0,1,2.24-.31c.65.27.77.9,1.55,1.1s2.26-.33,3.16-.45c2-.33,4-.59,5.91-1,3.12-.73,4.19-3.64,4-6.56-.21-2.71-3-3.61-5.18-3.93s-5.2-1.37-7.25-.12c-3,1.86-1.82,7.47-6.34,6.65-3.66-6.61-14.28-23-15.16-23.93a13,13,0,0,0-6.7-3.71C122.89,1.73,89.87,0,83.65,0S44.39,1.79,41.11,2.38a12.79,12.79,0,0,0-6.67,3.68C33.56,7,22.93,23.43,19.31,30c-.16.28-.29.54-.42.77.12-.24.26-.5.41-.77-4.53.83-3.33-4.79-6.35-6.64-2.06-1.24-5-.27-7.25.14s-5,1.22-5.18,3.94c-.18,2.92.91,5.84,4,6.54,1.93.46,4,.71,5.9,1,.89.12,2.25.64,3.17.44s.89-.84,1.55-1.1a4.38,4.38,0,0,1,2.24.3c.05-.14.11-.32.18-.55-.06.23-.12.41-.17.55a3.8,3.8,0,0,1-1.33,1.09.35.35,0,0,1-.1.1,46.69,46.69,0,0,0-6.6,5.24c-3,3.19-8.2,8-8.33,10.71S-.25,56.48.05,62C.14,64.57.9,72.58,1.61,80.19c.72,8,1.5,15.59,1.56,16.17.14,1.18-.25,2.47.26,3.48s1.83,1.34,3.88,1.3l17,.23c22.51.26,59.45.75,59.45.75l60.5-.88,15.91-.22c2.05,0,3.35-.26,3.9-1.31s.11-2.31.23-3.48c.1-.82,1.44-14.5,2.31-24.59.39-4.45.68-8.2.78-9.86C167.63,56.34,166.45,54.4,166.32,51.69ZM149.21,32.28c.11.32.2.59.27.83-.08-.24-.17-.52-.28-.84Zm4.39,17.4c2.93,0,3.51-.39,4.1,2.31a13.83,13.83,0,0,1,0,5.66c-1.17,5.63-8.33,5.63-13,5.63-8.56,0-16,2.15-22.71-9.89,5.8-1.72,12.62-1.56,18.44-2.5A71.5,71.5,0,0,1,153.6,49.68ZM36.14,6.86,83.69,5.21l47.46,1.57S148.3,33.45,147,33.45s-44.07-2.41-63.34-2c-19.21-.39-62.09,2.08-63.3,2.08S36.14,6.86,36.14,6.86ZM9.68,52.12c.59-2.7,1.17-2.31,4.07-2.34A75.73,75.73,0,0,1,27,51c5.86.94,12.64.75,18.44,2.47-6.74,12.08-14.15,10-22.71,10-4.65,0-11.84,0-13-5.63A13.83,13.83,0,0,1,9.68,52.12ZM40.23,95.61c-2.86,1-9.44.82-12.55.82-1.15,0-2.29,0-3.4,0-2.72,0-5.46-.1-8.22-.12-1.24,0-2.44,0-3.71,0C7.7,96.23,6.92,94.67,8,90c1-3.39.39-6.57,3.87-7.88,1.27-.45,5.49-.65,10.73-.61.56,0,1.15,0,1.72,0,1.74,0,3.55.07,5.41.17,1.1,0,2.21.09,3.32.16.42,0,.81,0,1.2.06.62,0,1.21.09,1.79.13s1.17.1,1.76.13,1.14.13,1.68.16c.85.06,1.67.16,2.45.26l1.5.2c.41.07.8.13,1.19.17.2,0,.4.06.57.09s.48.1.7.13a.9.9,0,0,0,.26,0l.49.1.72.16C46,87.9,44.88,94.06,40.23,95.61Zm47.16-1.14A21.5,21.5,0,1,1,108.89,73,21.49,21.49,0,0,1,87.39,94.47ZM155.1,96.1c-3.71,0-7.25.13-10.87.19-1.5,0-3,0-4.45,0-3.13,0-9.7.25-12.53-.78-4.09-1.37-5.52-6.28-6.66-10.43-.16-.57-.31-1.14-.47-1.67a2.66,2.66,0,0,1,.47-.11,4.28,4.28,0,0,1,.54-.12l1.51-.26,1-.16a1.14,1.14,0,0,0,.36,0l1.46-.19h.14l1.52-.2c1.27-.13,2.6-.25,4-.35.4,0,.78,0,1.17-.07,2.12-.16,4.3-.3,6.44-.36l1.66-.1h1.21l1.43-.06h1.14c5.56-.09,10.08.13,11.38.59,3.49,1.29,2.86,4.48,3.91,7.86C160.53,94.55,159.75,96.1,155.1,96.1Z"/><path class="cls-1" d="M7.18,104.4c-1.37,0-3.84-.07-5.53-1.63V113.6a1.56,1.56,0,0,0,1.56,1.56l19.55,0a1.56,1.56,0,0,0,1.53-1.56v-8.95h0Z"/><path class="cls-1" d="M160.14,104.27l-15.91.22v9a1.58,1.58,0,0,0,1.56,1.56l19.55,0a1.54,1.54,0,0,0,1.56-1.56v-12.2C165.21,104.27,161.67,104.27,160.14,104.27Z"/><path class="cls-1" d="M16.57,83.07a6,6,0,0,0-5.89,6,5.93,5.93,0,1,0,5.89-6Z"/><path class="cls-1" d="M28.5,84.76A4.23,4.23,0,1,0,32.72,89,4.21,4.21,0,0,0,28.5,84.76Z"/><path class="cls-1" d="M150.44,83a5.93,5.93,0,1,0,5.93,5.92A5.93,5.93,0,0,0,150.44,83Z"/><path class="cls-1" d="M138,84.66a4.24,4.24,0,0,0-4.11,5.21A4.19,4.19,0,0,0,136.94,93a4.23,4.23,0,1,0,1-8.34Z"/><polygon class="cls-1" points="85.15 74.19 78.64 68.08 73.8 72.62 85.15 83.27 103.08 66.46 98.23 61.92 85.15 74.19"/></g></g></svg>