<svg xmlns="http://www.w3.org/2000/svg" viewBox="0 0 228.56 108.84"><defs><style>.cls-1{fill:#fff;}</style></defs><title>Asset 20</title><g id="Layer_2" data-name="Layer 2"><g id="Layer_1-2" data-name="Layer 1"><path class="cls-1" d="M228.56,20a20,20,0,1,0-37.83,9l17.85,36.81L226.43,29A19.91,19.91,0,0,0,228.56,20ZM208.58,31a11.06,11.06,0,1,1,11-11.06A11.07,11.07,0,0,1,208.58,31Z"/><polygon class="cls-1" points="143.39 58.13 140.04 58.07 138.36 61.55 123.98 91.36 103.12 90.9 94.43 108.84 129.12 108.08 135.25 107.94 136.84 102.82 147.38 68.88 205.45 67.86 201.23 59.14 143.39 58.13"/><path class="cls-1" d="M10.61,56.29A10.27,10.27,0,0,0,10,57.58c-.23.71-.33,1.07-.4,1.26a2.57,2.57,0,0,0-1.23-.16c-.37.15-.43.5-.86.61A6.1,6.1,0,0,1,5.74,59c-1.07-.17-2.18-.32-3.24-.56-1.72-.39-2.32-2-2.21-3.6s1.63-2,2.84-2.17,2.85-.76,4-.07C8.77,53.65,8.12,56.75,10.61,56.29Z"/><path class="cls-1" d="M91.42,68.2c-.09-1.51-3.57-4.72-4.57-5.71a44.86,44.86,0,0,0-3.76-3.13c-.46-.28-.55-.28-.68-.57s-.16-.57-.39-1.27a9.45,9.45,0,0,0-.65-1.29c-2-3.63-7.85-12.66-8.33-13.16a7.27,7.27,0,0,0-3.68-2c-1.81-.3-20-1.25-23.38-1.25s-21.58,1-23.39,1.31a7,7,0,0,0-3.66,2c-.49.5-6.33,9.55-8.32,13.18A11,11,0,0,0,10,57.58c-.23.71-.32,1.07-.39,1.26a2.18,2.18,0,0,1-.74.61l-.05.06a24.67,24.67,0,0,0-3.63,2.88C3.5,64.14.65,66.77.58,68.27S-.13,70.83,0,73.83c.05,1.45.46,5.85.85,10,.4,4.4.83,8.57.86,8.89.07.64-.14,1.36.15,1.91s1,.74,2.12.72l9.34.12L46,95.92l33.26-.49L88,95.31c1.12,0,1.84-.15,2.14-.72s.06-1.27.13-1.91c0-.45.79-8,1.27-13.52.21-2.45.37-4.51.43-5.42C92.14,70.75,91.5,69.68,91.42,68.2Zm-7-1.11c1.61,0,1.93-.22,2.25,1.27a7.41,7.41,0,0,1,0,3.11c-.64,3.09-4.57,3.09-7.15,3.09-4.7,0-8.78,1.18-12.48-5.43,3.18-.95,6.94-.86,10.14-1.38A39.24,39.24,0,0,1,84.43,67.09ZM19.86,43.55,46,42.64l26.09.86s9.43,14.67,8.71,14.67S56.57,56.84,46,57.07c-10.56-.21-34.13,1.15-34.8,1.15S19.86,43.55,19.86,43.55ZM5.32,68.43C5.64,67,6,67.16,7.55,67.14a41.56,41.56,0,0,1,7.27.66c3.21.52,7,.41,10.13,1.36-3.7,6.64-7.77,5.48-12.48,5.48-2.55,0-6.51,0-7.15-3.1A7.75,7.75,0,0,1,5.32,68.43ZM22.11,92.34c-1.57.57-5.19.45-6.9.45-.63,0-1.25,0-1.86,0-1.5,0-3-.06-4.52-.07-.69,0-1.35,0-2,0-2.56,0-3-.86-2.42-3.42.57-1.86.22-3.61,2.13-4.32a26.68,26.68,0,0,1,5.9-.34h.95c1,0,2,0,3,.09l1.82.09c.23,0,.45,0,.66,0l1,.07,1,.07.93.09L23,85.2l.83.11.66.09.3,0,.39.08h.15l.26.06a4,4,0,0,1,.4.09C25.29,88.1,24.67,91.48,22.11,92.34Zm41.06-3.27c-.91,2.55-4.47,2.21-4.83,2.21l-24.64,0c-.34,0-3.92.36-4.83-2.2S26.51,82.4,26,80.34s-2.29-5.88,8.19-5.65c5.4.11,9.3.11,11.8.07s6.42,0,11.82-.09c10.46-.25,8.73,3.47,8.19,5.63S64.1,86.51,63.17,89.07Zm22.08,3.54c-2,0-4,.07-6,.1-.82,0-1.63,0-2.45,0-1.71,0-5.33.15-6.88-.43-2.56-.86-3.22-4.24-3.92-6.65a4.88,4.88,0,0,1,.55-.12l.83-.15.57-.09a.68.68,0,0,0,.2,0l.8-.1h.07l.84-.11c.7-.07,1.43-.14,2.2-.2.22,0,.43,0,.65,0,1.16-.09,2.36-.16,3.54-.2l.91,0h.66l.79,0h.62a28.88,28.88,0,0,1,6.26.32c1.92.72,1.58,2.47,2.15,4.33C88.24,91.75,87.81,92.61,85.25,92.61Z"/><path class="cls-1" d="M13.35,97.29v4.92a.86.86,0,0,1-.84.86l-10.75,0a.87.87,0,0,1-.86-.86v-6a4.44,4.44,0,0,0,3,.9l9.39.12Z"/><path class="cls-1" d="M91.75,95.43v6.71a.85.85,0,0,1-.86.86H80.14a.86.86,0,0,1-.86-.85V97.22L88,97.09C88.87,97.09,90.82,97.09,91.75,95.43Z"/><path class="cls-1" d="M12.38,88.7a3.26,3.26,0,0,1-6.51,0A3.31,3.31,0,0,1,9.1,85.44,3.26,3.26,0,0,1,12.38,88.7Z"/><path class="cls-1" d="M89.49,58.4c-1.06.25-2.18.4-3.24.58a6.16,6.16,0,0,1-1.75.24c-.42-.11-.49-.46-.85-.6a2.44,2.44,0,0,0-1.23.16c-.08-.2-.17-.55-.41-1.26a9,9,0,0,0-.64-1.29c2.49.45,1.83-2.64,3.49-3.66,1.13-.69,2.77-.15,4,.07s2.73.67,2.84,2.16S91.2,58,89.49,58.4Z"/><path class="cls-1" d="M18,88.69a2.33,2.33,0,1,1-2.33-2.32A2.33,2.33,0,0,1,18,88.69Z"/><path class="cls-1" d="M86,88.63a3.26,3.26,0,1,1-3.25-3.25A3.25,3.25,0,0,1,86,88.63Z"/><path class="cls-1" d="M78.16,88.64a2.33,2.33,0,0,1-2.88,2.26,2.29,2.29,0,0,1-1.7-1.72,2.32,2.32,0,1,1,4.58-.54Z"/></g></g></svg>