<svg xmlns="http://www.w3.org/2000/svg" viewBox="0 0 222 166.85"><title>Asset 18</title><g id="Layer_2" data-name="Layer 2"><g id="Layer_1-2" data-name="Layer 1"><rect fill="#fff" y="157.11" width="35.09" height="8.74"/><polygon fill="#fff" points="22.21 81.23 10.88 81.23 10.88 155.27 22.21 155.27 22.21 123.05 50 123.05 50 119.99 22.21 119.99 22.21 81.23"/><rect fill="#fff" x="186.91" y="158.11" width="35.09" height="8.74"/><polygon fill="#fff" points="199.79 156.27 211.12 156.27 211.12 82.23 199.79 82.23 199.79 120.99 172 120.99 172 124.05 199.79 124.05 199.79 156.27"/><path fill="#fff" d="M188.11,102.16c2.07,0,3.38-.26,3.94-1.32s.11-2.33.23-3.52c.1-.83,1.46-14.67,2.34-24.87.39-4.5.69-8.29.79-10,.27-5.5-.92-7.46-1-10.2s-6.58-8.68-8.42-10.5A84.36,84.36,0,0,0,179,36c-.85-.53-1-.53-1.24-1.05a3,3,0,0,1-.12-.36l.13.35a4.36,4.36,0,0,1,2.27-.31c.65.27.78.91,1.57,1.11s2.28-.33,3.2-.46c2-.33,4-.59,6-1.05,3.15-.74,4.24-3.68,4-6.63-.21-2.74-3-3.65-5.23-4s-5.26-1.39-7.34-.13c-3.06,1.88-1.84,7.56-6.41,6.73-3.7-6.69-14.44-23.28-15.33-24.2a13.17,13.17,0,0,0-6.78-3.75C150.44,1.75,117,0,110.75,0s-39.7,1.82-43,2.41A13,13,0,0,0,61,6.12c-.89.93-11.64,17.57-15.3,24.25-.16.29-.29.55-.43.78l.42-.78c-4.58.84-3.37-4.85-6.42-6.71-2.09-1.26-5.11-.27-7.33.13s-5,1.24-5.24,4c-.18,2.95.92,5.9,4.08,6.62,1.95.46,4,.72,6,1.05.9.12,2.27.64,3.21.44.78-.19.9-.85,1.57-1.11a4.44,4.44,0,0,1,2.26.3c.05-.14.11-.32.18-.56a5.77,5.77,0,0,1-.17.56,3.84,3.84,0,0,1-1.35,1.11l-.09.1a46.31,46.31,0,0,0-6.68,5.3c-3.07,3.22-8.29,8.06-8.42,10.82s-1.33,4.71-1,10.24c.1,2.65.86,10.75,1.58,18.45.73,8.1,1.52,15.76,1.58,16.36.14,1.18-.26,2.49.26,3.52s1.85,1.34,3.93,1.31c.65,0,7.59.09,17.16.23,22.77.26,60.12.75,60.12.75s38.52-.55,61.19-.89ZM177.06,32.65c.11.32.2.59.27.84-.09-.25-.17-.54-.28-.86Zm4.43,17.59c3,0,3.56-.39,4.15,2.33a13.82,13.82,0,0,1,0,5.73c-1.18,5.7-8.42,5.7-13.16,5.7-8.66,0-16.15,2.17-23-10,5.87-1.74,12.77-1.58,18.66-2.53A73,73,0,0,1,181.49,50.24ZM62.7,6.94l48.09-1.67,48,1.58s17.34,27,16,27-44.57-2.44-64.06-2c-19.43-.4-62.79,2.1-64,2.1S62.7,6.94,62.7,6.94ZM35.94,52.71c.6-2.73,1.19-2.33,4.11-2.37a76.31,76.31,0,0,1,13.36,1.22c5.93.95,12.8.76,18.66,2.5-6.82,12.21-14.31,10.07-23,10.07-4.7,0-12,0-13.16-5.69A14.17,14.17,0,0,1,35.94,52.71Zm30.9,44c-2.89,1.06-9.55.83-12.7.83-1.16,0-2.31,0-3.43,0-2.75,0-5.52-.1-8.31-.12-1.26,0-2.47,0-3.75,0-4.71,0-5.5-1.58-4.45-6.28,1-3.42.4-6.65,3.92-8,1.28-.45,5.55-.65,10.85-.61.57,0,1.16,0,1.74,0,1.75,0,3.59.07,5.47.17,1.11,0,2.23.1,3.36.16.42,0,.81,0,1.21.07.63,0,1.22.09,1.81.13l1.78.14c.59.06,1.15.12,1.71.16.85.06,1.67.16,2.46.26l1.52.19c.42.08.82.14,1.21.18a4.49,4.49,0,0,1,.57.1c.26,0,.5.09.72.12a.66.66,0,0,0,.26,0l.49.1c.27.06.49.09.73.16C72.69,88.9,71.54,95.12,66.84,96.69Zm69.53-22.37h7a.55.55,0,0,1,.44.88,10,10,0,0,1-17.19-2.11H98.22A10,10,0,0,1,81,75.19a.54.54,0,0,1,.43-.87h7l3.2-5.22-3.2-5.23h-7A.55.55,0,0,1,81,63,10,10,0,0,1,98.22,65.1h28.37a10,10,0,0,1,17.2-2.1.55.55,0,0,1-.44.87h-7l-3.21,5.22Zm18.48,22.31c-4.14-1.38-5.58-6.35-6.74-10.54-.17-.58-.31-1.15-.47-1.7a3.57,3.57,0,0,1,.47-.11c.17,0,.35-.08.55-.12.46-.06,1-.16,1.52-.26l1-.16a1.17,1.17,0,0,0,.36,0l1.48-.2h.13l1.55-.19c1.28-.14,2.63-.26,4-.36.4,0,.79,0,1.18-.07,2.15-.17,4.35-.3,6.52-.36l1.68-.1h1.22c.5,0,1,0,1.45-.06H172c5.64-.1,10.2.12,11.51.59,3.53,1.31,2.9,4.53,4,8,1,4.72.26,6.29-4.45,6.29-3.75,0-7.33.13-11,.19-1.52,0-3,0-4.5,0C164.35,97.42,157.71,97.68,154.85,96.63Z"/><path fill="#fff" d="M33.41,105.58c-1.38,0-3.88-.07-5.59-1.65v11a1.58,1.58,0,0,0,1.58,1.58l19.77,0a1.58,1.58,0,0,0,1.55-1.58v-9h0Z"/><path fill="#fff" d="M188.11,105.45l-16.09.23v9.08a1.6,1.6,0,0,0,1.58,1.58l19.77,0a1.56,1.56,0,0,0,1.58-1.58V102.39C193.24,105.45,189.65,105.45,188.11,105.45Z"/><path fill="#fff" d="M42.91,84a6.1,6.1,0,0,0-6,6.08,6,6,0,1,0,6-6.08Z"/><path fill="#fff" d="M55,85.72A4.27,4.27,0,1,0,59.25,90,4.26,4.26,0,0,0,55,85.72Z"/><path fill="#fff" d="M178.31,95.88a6,6,0,1,0-6-6A6,6,0,0,0,178.31,95.88Z"/><path fill="#fff" d="M165.68,85.62a4.29,4.29,0,0,0-4.16,5.27,4.23,4.23,0,0,0,3.13,3.16,4.28,4.28,0,1,0,1-8.43Z"/></g></g></svg>
