<svg xmlns="http://www.w3.org/2000/svg" viewBox="0 0 187.84 138.33"><g id="Layer_2" data-name="Layer 2"><g id="Layer_1-2" data-name="Layer 1"><g id="Layer_1-2-2" data-name="Layer 1-2"><path d="M8,125.35c-1.53,0-4.3-.08-6.2-2v13.06a1.82,1.82,0,0,0,1.74,1.88h22a1.82,1.82,0,0,0,1.71-1.88V125.77h0Z" style="fill:#fff"/><path d="M179.74,125.19l-17.84.28v10.78a1.83,1.83,0,0,0,1.75,1.87h21.94a1.79,1.79,0,0,0,1.75-1.83V121.57C185.39,125.19,181.41,125.19,179.74,125.19Z" style="fill:#fff"/><path d="M18.57,99.73a7,7,0,0,0-6.66,7.21,6.9,6.9,0,0,0,6.74,7,7.14,7.14,0,0,0-.08-14.25Z" style="fill:#fff"/><path d="M32,101.77a5.08,5.08,0,0,0,0,10.14,5.08,5.08,0,0,0,0-10.14Z" style="fill:#fff"/><path d="M168.82,113.82a7.14,7.14,0,1,0-6.65-7.12A6.9,6.9,0,0,0,168.82,113.82Z" style="fill:#fff"/><path d="M154.81,101.66a4.92,4.92,0,0,0-4.75,5.08,5.67,5.67,0,0,0,.13,1.17,4.86,4.86,0,0,0,3.47,3.75,4.73,4.73,0,0,0,5.77-3.68,5.12,5.12,0,0,0-3.44-6.17,4.21,4.21,0,0,0-1.22-.15Z" style="fill:#fff"/></g><path d="M186.63,62.06c-.18-3.26-7.3-10.3-9.34-12.45a94,94,0,0,0-7.67-6.87c-1-.64-1.11-.64-1.38-1.24v0a5,5,0,0,1,2.53-.37c.72.34.85,1.09,1.73,1.33s2.55-.41,3.55-.54c2.23-.39,4.46-.72,6.66-1.25,3.49-.88,4.68-4.37,4.5-7.87-.23-3.25-3.32-4.34-5.81-4.74s-5.84-1.66-8.12-.15c-3.43,2.23-2.06,9-7.13,8C162,28,150.09,8.32,149.1,7.2a14.38,14.38,0,0,0-7.52-4.47C137.9,2.07,100.84,0,93.86,0S49.79,2.15,46.16,2.85a14.1,14.1,0,0,0-7.5,4.42c-1,1.11-12.91,20.86-17,28.79l-.25.46.22-.46c-5.08,1-3.73-5.75-7.11-8-2.38-1.49-5.71-.31-8.17.18S.82,29.71.57,33c-.21,3.5,1,7,4.51,7.87,2.18.52,4.46.85,6.67,1.24,1,.15,2.53.76,3.56.52s1-1,1.75-1.31a4.49,4.49,0,0,1,2.5.34q0-.16.15-.45c-.06.19-.09.34-.14.45A4.41,4.41,0,0,1,18.08,43a.42.42,0,0,1-.12.1,52,52,0,0,0-7.39,6.31C7.13,53.18,1.31,59,1.18,62.22S-.3,67.8.06,74.37c.07,3.15.94,12.78,1.71,21.9.82,9.62,1.69,18.73,1.76,19.43.15,1.42-.28,3,.29,4.17s2.07,1.61,4.36,1.55l19,.29c25.27.3,66.72.89,66.72.89l67.9-1,17.86-.25c2.3,0,3.76-.33,4.37-1.59s.12-2.77.27-4.18c.1-1,1.61-17.42,2.58-29.51.44-5.36.76-9.87.88-11.89C188.09,67.67,186.78,65.3,186.63,62.06Zm-14.28-2.41c3.36,0,4-.47,4.61,2.77a17.29,17.29,0,0,1,0,6.8C175.65,76,167.61,76,162.35,76c-9.59,0-17.92,2.58-25.51-11.86,6.5-2.07,14.15-1.9,20.69-3A76.22,76.22,0,0,1,172.35,59.65ZM10.84,62.58c.65-3.25,1.31-2.79,4.56-2.81a77.75,77.75,0,0,1,14.83,1.46c6.58,1.11,14.21.88,20.7,3C43.37,78.67,35.05,76.13,25.49,76.13c-5.23,0-13.32,0-14.59-6.73A17.59,17.59,0,0,1,10.84,62.58Zm34.29,52.21v0c-3.22,1.27-10.6,1-14.08,1H27.22c-3,0-6.11-.1-9.21-.14H13.85c-5.23-.12-6.11-2-4.95-7.61,1.12-4,.45-7.88,4.35-9.49,1.42-.57,6.18-.79,12.05-.75h1.92c2,0,4,.09,6.07.19,1.24,0,2.49.12,3.74.2a8.28,8.28,0,0,1,1.33.07l2,.17c.66,0,1.34.12,2,.15s1.29.14,1.9.19c1,.07,1.86.21,2.74.31l1.68.24c.53.06.9.15,1.36.19l.61.14a3.89,3.89,0,0,1,.81.15h.28l.54.1.82.2C51.61,105.55,50.34,112.93,45.13,114.79ZM88.78,99.58a7.12,7.12,0,0,1-14.23,0V68.44a7.12,7.12,0,1,1,14.23,0Zm5-61.76c-21.58-.48-69.68,2.49-71,2.49S40.54,8.24,40.54,8.24l53.35-2,53.27,1.88s19.24,32.05,17.75,32.05S115.45,37.27,93.82,37.82Zm21.65,61.76a7.12,7.12,0,0,1-14.23,0V68.44a7.12,7.12,0,0,1,14.23,0ZM174,115.37v0c-4.15,0-8.14.16-12.21.24h-5c-3.5,0-10.87.29-14.06-.94-4.59-1.66-6.18-7.55-7.46-12.53-.2-.68-.36-1.35-.53-2a3.74,3.74,0,0,1,.53-.13,2.55,2.55,0,0,1,.59-.14l1.67-.3,1.12-.18a1.27,1.27,0,0,0,.39,0l1.64-.25h.15l1.73-.24c1.41-.15,2.9-.29,4.42-.41a9.4,9.4,0,0,0,1.31-.09c2.39-.18,4.85-.36,7.24-.44l1.86-.1h1.37l1.61-.08h1.27c6.24-.11,11.31.15,12.77.71,3.92,1.56,3.21,5.39,4.45,9.49C180.15,113.52,179.27,115.37,174,115.37Z" style="fill:#fff"/></g></g></svg>