<svg xmlns="http://www.w3.org/2000/svg" viewBox="0 0 244 149.46"><defs><style>.cls-1{fill:#fff;}</style></defs><title>Asset 21</title><g id="Layer_2" data-name="Layer 2"><g id="Layer_1-2" data-name="Layer 1"><polyline class="cls-1" points="25.86 122.96 25.86 136.21 0 136.21 0 149.46 244 149.46 244 136.21 218.15 136.21 218.15 122.96 201.18 122.96"/><path class="cls-1" d="M42.71,122.58c.12-1.16,0-1,0,0"/><path class="cls-1" d="M206.87,54c-.17-2.86-6.8-9-8.7-10.84a84.29,84.29,0,0,0-7.14-6c-.88-.55-1.05-.55-1.29-1.08a3.46,3.46,0,0,1-.11-.37l.13.36a4.42,4.42,0,0,1,2.34-.32c.68.28.81.94,1.62,1.15,1,.2,2.36-.35,3.31-.48,2-.34,4.14-.61,6.17-1.08,3.25-.77,4.38-3.8,4.18-6.85-.21-2.83-3.12-3.78-5.4-4.11s-5.44-1.43-7.58-.13c-3.17,1.94-1.9,7.81-6.62,7-3.83-6.92-14.93-24.06-15.85-25a13.6,13.6,0,0,0-7-3.87C161.5,1.81,127,0,120.5,0S79.48,1.88,76,2.49a13.28,13.28,0,0,0-7,3.84c-.92,1-12,18.15-15.81,25-.16.29-.3.56-.44.8l.43-.8c-4.73.87-3.48-5-6.63-6.94-2.16-1.3-5.28-.28-7.58.14s-5.19,1.28-5.41,4.12c-.19,3.05,1,6.1,4.21,6.84,2,.47,4.13.74,6.16,1.08.93.13,2.35.67,3.32.46.8-.2.93-.88,1.62-1.15a4.72,4.72,0,0,1,2.33.31c.06-.14.12-.33.2-.57q-.1.36-.18.57a4.18,4.18,0,0,1-1.39,1.15.44.44,0,0,1-.11.1A49.26,49.26,0,0,0,42.9,43c-3.16,3.33-8.56,8.33-8.7,11.19S32.84,59,33.14,64.73c.11,2.74.9,11.11,1.64,19,.75,8.37,1.57,16.29,1.63,16.91.14,1.22-.27,2.57.27,3.63s1.91,1.39,4,1.35l17.74.25c23.52.26,62.11.77,62.11.77l2.1,0,.45-19.37-13,.08.11-20.16a5.87,5.87,0,0,0,0-.59l29.55-.17a3.93,3.93,0,0,0-.06.59l-.12,20.16-11.18.06.72,19.31,54.74-.79,16.62-.23c2.14,0,3.49-.27,4.07-1.37s.11-2.41.24-3.63c.1-.86,1.51-15.16,2.41-25.7.41-4.65.72-8.57.82-10.3C208.24,58.87,207,56.84,206.87,54ZM189,33.73c.12.33.21.61.28.87-.09-.26-.18-.55-.29-.88Zm4.58,18.18c3.06,0,3.68-.41,4.29,2.41a14.39,14.39,0,0,1,0,5.92c-1.23,5.88-8.7,5.88-13.6,5.88-8.94,0-16.69,2.24-23.73-10.34,6.06-1.79,13.19-1.63,19.28-2.61A74.31,74.31,0,0,1,193.58,51.91Zm-141.1-19c-.1.21-.19.39-.26.55C52.29,33.27,52.37,33.08,52.48,32.87ZM43.21,54.46c.61-2.82,1.22-2.41,4.25-2.45a78.62,78.62,0,0,1,13.8,1.26c6.12,1,13.22.78,19.27,2.58-7,12.61-14.78,10.41-23.72,10.41-4.86,0-12.38,0-13.6-5.88A14.39,14.39,0,0,1,43.21,54.46ZM75.13,99.9c-3,1.09-9.86.85-13.12.85-1.2,0-2.38,0-3.54,0-2.85,0-5.71-.1-8.59-.13-1.3,0-2.55,0-3.88,0-4.86,0-5.67-1.64-4.59-6.5,1.08-3.53.41-6.86,4-8.22,1.33-.48,5.74-.68,11.22-.64.58,0,1.2,0,1.8,0,1.81,0,3.71.08,5.65.18,1.15,0,2.31.1,3.47.17.43,0,.84,0,1.25.06l1.87.14,1.84.14c.61.07,1.19.13,1.76.17.88.06,1.73.16,2.55.27l1.57.2c.43.08.84.14,1.25.18a5.18,5.18,0,0,1,.59.1c.26,0,.51.1.74.13a.68.68,0,0,0,.26,0l.51.1.76.16C81.17,91.85,80,98.28,75.13,99.9Zm34-12.24a4.44,4.44,0,0,1-4.4,4.41,4.33,4.33,0,0,1-4.36-4.36l.12-20.45a4.44,4.44,0,0,1,4.4-4.41,4.33,4.33,0,0,1,4.31,3.78,5.44,5.44,0,0,1,.05.58l-.12,20.16ZM120.5,32.87C100.42,32.47,55.62,35,54.36,35S70.85,7.17,70.85,7.17l49.69-1.72,49.58,1.63S188.05,35,186.68,35,140.63,32.43,120.5,32.87Zm28.73,54.56a4.44,4.44,0,0,1-4.41,4.4,4.32,4.32,0,0,1-4.36-4.35v-.29L140.58,67a5.42,5.42,0,0,1,.06-.58A4.44,4.44,0,0,1,145,62.62,4.33,4.33,0,0,1,149.35,67Zm45.92,13c-3.88,0-7.58.14-11.35.2-1.57,0-3.1,0-4.66,0-3.26,0-10.13.27-13.09-.82-4.27-1.43-5.76-6.56-7-10.89-.17-.6-.32-1.19-.49-1.75a2.88,2.88,0,0,1,.49-.11,4.76,4.76,0,0,1,.57-.13c.47-.07,1-.17,1.57-.27.33,0,.7-.1,1.09-.17a1.63,1.63,0,0,0,.37,0l1.53-.21h.14l1.59-.2c1.33-.14,2.72-.27,4.17-.37.42,0,.82,0,1.23-.08,2.22-.16,4.49-.31,6.73-.37l1.74-.1h1.26c.51,0,1,0,1.49-.06h1.19c5.82-.11,10.54.12,11.89.61,3.65,1.35,3,4.68,4.09,8.21C200.83,98.79,200,100.41,195.15,100.41Z"/><path class="cls-1" d="M40.59,109.08c-1.42,0-4-.07-5.77-1.7V118.7a1.63,1.63,0,0,0,1.63,1.63l20.43,0a1.62,1.62,0,0,0,1.59-1.64v-9.34h0Z"/><path class="cls-1" d="M200.41,108.94l-16.62.24v9.38a1.65,1.65,0,0,0,1.63,1.63l20.43,0a1.61,1.61,0,0,0,1.64-1.63V105.78C205.72,108.94,202,108.94,200.41,108.94Z"/><path class="cls-1" d="M50.41,86.79a6.3,6.3,0,0,0-6.16,6.28,6.19,6.19,0,1,0,6.16-6.28Z"/><path class="cls-1" d="M62.87,88.56A4.42,4.42,0,1,0,67.29,93,4.41,4.41,0,0,0,62.87,88.56Z"/><path class="cls-1" d="M190.28,86.67a6.19,6.19,0,1,0,6.2,6.19A6.19,6.19,0,0,0,190.28,86.67Z"/><path class="cls-1" d="M177.25,88.46A4.43,4.43,0,0,0,173,93.9a4.36,4.36,0,0,0,3.23,3.27,4.42,4.42,0,1,0,1.07-8.71Z"/><path class="cls-1" d="M128.31,86.48a.77.77,0,0,0-.76-.74l-3.65,0a.74.74,0,0,0-.75.73l0,.85,5.21,0Z"/></g></g></svg>