<svg xmlns="http://www.w3.org/2000/svg" viewBox="0 0 169.3 116.47"><title>pending</title><g id="Layer_2" data-name="Layer 2"><g id="Layer_1-2" data-name="Layer 1"><path d="M7.26,105.58c-1.38,0-3.88-.07-5.59-1.65v11a1.58,1.58,0,0,0,1.57,1.58l19.78,0a1.57,1.57,0,0,0,1.54-1.58v-9h0Z" style="fill:#fff"/><path d="M162,105.44l-16.08.24v9.08a1.59,1.59,0,0,0,1.58,1.57l19.77,0a1.56,1.56,0,0,0,1.58-1.58V102.39C167.09,105.44,163.5,105.44,162,105.44Z" style="fill:#fff"/><path d="M16.76,84a6.08,6.08,0,0,0-6,6.07,6,6,0,1,0,6-6.07Z" style="fill:#fff"/><path d="M28.82,85.72A4.27,4.27,0,1,0,33.09,90,4.27,4.27,0,0,0,28.82,85.72Z" style="fill:#fff"/><path d="M152.16,95.87a6,6,0,1,0-6-6A6,6,0,0,0,152.16,95.87Z" style="fill:#fff"/><path d="M139.53,85.62a4.28,4.28,0,0,0-4.16,5.27,4.23,4.23,0,0,0,3.13,3.16,4.28,4.28,0,1,0,1-8.43Z" style="fill:#fff"/><path d="M168.21,52.27c-.17-2.76-6.58-8.68-8.42-10.49A80.36,80.36,0,0,0,152.88,36c-.86-.54-1-.54-1.25-1.05a1.94,1.94,0,0,1-.11-.36c0,.13.08.24.12.34a4.46,4.46,0,0,1,2.27-.31c.66.28.78.92,1.57,1.12s2.29-.34,3.2-.46c2-.33,4-.59,6-1.05,3.14-.74,4.23-3.68,4.05-6.63-.21-2.74-3-3.66-5.24-4s-5.26-1.38-7.33-.12c-3.07,1.88-1.84,7.56-6.41,6.73C146,23.57,135.28,7,134.39,6.06a13.2,13.2,0,0,0-6.78-3.76c-3.32-.55-36.72-2.3-43-2.3s-39.71,1.81-43,2.4a13,13,0,0,0-6.74,3.72c-.89.93-11.65,17.57-15.3,24.25l-.23.4.21-.4c-4.58.84-3.37-4.85-6.42-6.72C11,22.39,8,23.38,5.77,23.79s-5,1.23-5.24,4c-.18,2.95.92,5.9,4.08,6.62,1.95.45,4,.71,6,1.05.9.12,2.28.64,3.21.44s.9-.85,1.57-1.11a4.54,4.54,0,0,1,2.26.29c.05-.13.11-.32.19-.55-.07.23-.13.42-.18.55a3.92,3.92,0,0,1-1.34,1.12.38.38,0,0,1-.1.09,47,47,0,0,0-6.68,5.3C6.44,44.8,1.21,49.64,1.08,52.41s-1.32,4.7-1,10.24C.15,65.3.92,73.4,1.63,81.09c.73,8.1,1.52,15.77,1.58,16.36.14,1.19-.26,2.5.26,3.52s1.86,1.35,3.93,1.31l17.16.24c22.77.25,60.12.75,60.12.75l61.19-.89,16.09-.22c2.08,0,3.39-.26,3.94-1.32s.11-2.34.24-3.52c.1-.83,1.45-14.67,2.33-24.87.4-4.51.69-8.3.79-10C169.53,57,168.35,55,168.21,52.27Zm-12.86-2c3,0,3.55-.4,4.14,2.33a13.82,13.82,0,0,1,0,5.73C158.31,64,151.07,64,146.33,64c-8.65,0-16.15,2.18-23-10,5.86-1.74,12.76-1.58,18.65-2.53A72.18,72.18,0,0,1,155.35,50.24ZM36.55,6.94,84.64,5.27l48,1.58s17.35,27,16,27-44.58-2.45-64.06-2c-19.44-.4-62.8,2.09-64,2.09S36.55,6.94,36.55,6.94ZM9.8,52.71c.59-2.73,1.18-2.34,4.11-2.37a76.49,76.49,0,0,1,13.36,1.22c5.92.95,12.79.75,18.65,2.49C39.11,66.26,31.61,64.13,23,64.13c-4.71,0-12,0-13.16-5.69A13.82,13.82,0,0,1,9.8,52.71Zm30.89,44c-2.89,1.06-9.55.83-12.69.83-1.17,0-2.31,0-3.44,0-2.75,0-5.52-.1-8.31-.13-1.26,0-2.47,0-3.75,0C7.79,97.32,7,95.74,8.05,91c1-3.42.4-6.64,3.92-8,1.28-.46,5.55-.66,10.85-.62.57,0,1.16,0,1.74,0,1.76,0,3.6.07,5.47.17,1.11,0,2.24.1,3.36.16.42,0,.82,0,1.21.06l1.82.14c.59,0,1.18.1,1.77.13s1.15.13,1.71.16c.85.06,1.68.16,2.47.26.53.08,1.05.14,1.52.2s.81.14,1.21.17l.56.1c.26,0,.5.1.72.13a.9.9,0,0,0,.26,0l.49.1.73.16C46.54,88.9,45.39,95.12,40.69,96.69ZM97.61,90.1a12.44,12.44,0,0,1-10-5.1H68.08a3.35,3.35,0,0,1-3.34-3.35V51.4a3.35,3.35,0,0,1,3.34-3.35H98.34a3.35,3.35,0,0,1,3.34,3.35V65.85A12.47,12.47,0,0,1,97.61,90.1Zm59.25,7.08c-3.75,0-7.33.14-11,.2-1.51,0-3,0-4.5,0-3.16,0-9.81.26-12.67-.79-4.14-1.39-5.58-6.35-6.74-10.55-.16-.58-.31-1.15-.47-1.69a2.66,2.66,0,0,1,.47-.11,4.44,4.44,0,0,1,.55-.12L124,83.9l1-.16a1.14,1.14,0,0,0,.36,0l1.48-.2h.14l1.54-.2c1.29-.13,2.63-.26,4-.35a11.31,11.31,0,0,0,1.18-.08c2.15-.16,4.35-.3,6.52-.36l1.68-.1h1.23l1.44-.06h1.15c5.63-.1,10.2.13,11.51.6,3.53,1.3,2.9,4.53,4,8C162.36,95.61,161.57,97.18,156.86,97.18ZM97.61,67.89a9.74,9.74,0,1,0,9.75,9.74A9.75,9.75,0,0,0,97.61,67.89Zm5,11.19h-5a1.36,1.36,0,0,1-1.36-1.36v-5a1.36,1.36,0,0,1,2.72,0v3.69h3.69a1.36,1.36,0,1,1,0,2.72Zm-5-13.92a11.94,11.94,0,0,1,1.35.08V51.4a.62.62,0,0,0-.62-.62H89.22v9.53a1.36,1.36,0,0,1-.6,1.13,1.38,1.38,0,0,1-.76.23,1.32,1.32,0,0,1-.51-.1l-4.14-1.65-4.14,1.65a1.36,1.36,0,0,1-1.87-1.26V50.78H68.08a.62.62,0,0,0-.62.62V81.65a.63.63,0,0,0,.62.63h18A12.47,12.47,0,0,1,97.61,65.16Zm-13.9-8L86.5,58.3V50.78H79.92V58.3l2.78-1.11A1.36,1.36,0,0,1,83.71,57.19Z" style="fill:#fff"/></g></g></svg>