<svg xmlns="http://www.w3.org/2000/svg" viewBox="0 0 182 134.03"><g id="Layer_2" data-name="Layer 2"><g id="Layer_1-2" data-name="Layer 1"><g id="Layer_1-2-2" data-name="Layer 1-2"><path d="M7.78,121.46c-1.48,0-4.17-.08-6-1.9v12.65A1.77,1.77,0,0,0,3.46,134H24.73a1.75,1.75,0,0,0,1.65-1.82V121.86h0Z" style="fill:#fff"/><path d="M174.16,121.3l-17.29.27V132a1.76,1.76,0,0,0,1.7,1.8h21.25a1.73,1.73,0,0,0,1.7-1.77V117.79C179.63,121.3,175.77,121.3,174.16,121.3Z" style="fill:#fff"/><path d="M18,96.63a6.77,6.77,0,0,0-6.45,7,6.68,6.68,0,0,0,6.52,6.83A6.92,6.92,0,0,0,18,96.63Z" style="fill:#fff"/><path d="M31,98.61a4.92,4.92,0,0,0,0,9.82,4.92,4.92,0,0,0,0-9.82Z" style="fill:#fff"/><path d="M163.58,110.29a6.92,6.92,0,1,0-6.46-6.91A6.69,6.69,0,0,0,163.58,110.29Z" style="fill:#fff"/><path d="M150,98.49a4.78,4.78,0,0,0-4.6,4.93,5.38,5.38,0,0,0,.12,1.14,4.72,4.72,0,0,0,3.37,3.63,4.59,4.59,0,0,0,5.59-3.57,5,5,0,0,0-3.34-6,4.71,4.71,0,0,0-1.18-.15Z" style="fill:#fff"/></g><path d="M106.88,74.39c0,3.22,0,4.84,0,8.06a10.82,10.82,0,0,0,7,1.1c0-3.23,0-4.84,0-8.07A10.84,10.84,0,0,1,106.88,74.39ZM92.81,65.74c0,3.23,0,4.84,0,8.07a46.09,46.09,0,0,1,7,4.32c0-3.22,0-4.84,0-8.06A45,45,0,0,0,92.81,65.74Zm7,12.39c0,3.23,0,4.84,0,8.07a45.7,45.7,0,0,0,7,4.32c0-3.23,0-4.84,0-8.07A44.2,44.2,0,0,1,99.83,78.13Zm7-3.74c0,3.22,0,4.84,0,8.06a10.82,10.82,0,0,0,7,1.1c0-3.23,0-4.84,0-8.07A10.84,10.84,0,0,1,106.88,74.39ZM78.72,70h0c0,2.85,0,4.43,0,7v1.09c2.06-2.35,4-4.75,7-5.36,0-3.22,0-4.84,0-8.06C82.75,65.26,80.79,67.64,78.72,70Zm7,2.72c0,3.23,0,4.84,0,8.07a10.9,10.9,0,0,1,7,1.09c0-3.22,0-4.83,0-8.06A10.86,10.86,0,0,0,85.75,72.71Zm7.06-7c0,3.23,0,4.84,0,8.07a46.09,46.09,0,0,1,7,4.32c0-3.22,0-4.84,0-8.06A45,45,0,0,0,92.81,65.74Zm7,12.39c0,3.23,0,4.84,0,8.07a45.7,45.7,0,0,0,7,4.32c0-3.23,0-4.84,0-8.07A44.2,44.2,0,0,1,99.83,78.13Zm7-3.74c0,3.22,0,4.84,0,8.06a10.82,10.82,0,0,0,7,1.1c0-3.23,0-4.84,0-8.07A10.84,10.84,0,0,1,106.88,74.39ZM92.81,65.74c0,3.23,0,4.84,0,8.07a46.09,46.09,0,0,1,7,4.32c0-3.22,0-4.84,0-8.06A45,45,0,0,0,92.81,65.74Zm7,12.39c0,3.23,0,4.84,0,8.07a45.7,45.7,0,0,0,7,4.32c0-3.23,0-4.84,0-8.07A44.2,44.2,0,0,1,99.83,78.13Zm7-3.74c0,3.22,0,4.84,0,8.06a10.82,10.82,0,0,0,7,1.1c0-3.23,0-4.84,0-8.07A10.84,10.84,0,0,1,106.88,74.39ZM92.81,65.74c0,3.23,0,4.84,0,8.07a46.09,46.09,0,0,1,7,4.32c0-3.22,0-4.84,0-8.06A45,45,0,0,0,92.81,65.74Zm7,12.39c0,3.23,0,4.84,0,8.07a45.7,45.7,0,0,0,7,4.32c0-3.23,0-4.84,0-8.07A44.2,44.2,0,0,1,99.83,78.13Zm7-3.74c0,3.22,0,4.84,0,8.06a10.82,10.82,0,0,0,7,1.1c0-3.23,0-4.84,0-8.07A10.84,10.84,0,0,1,106.88,74.39ZM92.81,65.74c0,3.23,0,4.84,0,8.07a46.09,46.09,0,0,1,7,4.32c0-3.22,0-4.84,0-8.06A45,45,0,0,0,92.81,65.74Zm7,12.39c0,3.23,0,4.84,0,8.07a45.7,45.7,0,0,0,7,4.32c0-3.23,0-4.84,0-8.07A44.2,44.2,0,0,1,99.83,78.13Zm7-3.74c0,3.22,0,4.84,0,8.06a10.82,10.82,0,0,0,7,1.1c0-3.23,0-4.84,0-8.07A10.84,10.84,0,0,1,106.88,74.39ZM92.81,65.74c0,3.23,0,4.84,0,8.07a46.09,46.09,0,0,1,7,4.32c0-3.22,0-4.84,0-8.06A45,45,0,0,0,92.81,65.74Zm7,12.39c0,3.23,0,4.84,0,8.07a45.7,45.7,0,0,0,7,4.32c0-3.23,0-4.84,0-8.07A44.2,44.2,0,0,1,99.83,78.13Zm7-3.74c0,3.22,0,4.84,0,8.06a10.82,10.82,0,0,0,7,1.1c0-3.23,0-4.84,0-8.07A10.84,10.84,0,0,1,106.88,74.39Zm74-14.26c-.18-3.17-7.08-10-9.05-12.06a91.87,91.87,0,0,0-7.43-6.67c-.92-.61-1.08-.61-1.34-1.19v0a4.59,4.59,0,0,1,2.45-.36c.7.32.83,1.05,1.68,1.28s2.46-.39,3.44-.52c2.16-.38,4.31-.69,6.45-1.21,3.39-.85,4.55-4.24,4.37-7.63-.24-3.15-3.23-4.2-5.64-4.6s-5.67-1.59-7.88-.14c-3.31,2.17-2,8.69-6.9,7.75-4-7.65-15.55-26.7-16.51-27.79a14,14,0,0,0-7.29-4.32C133.62,2,97.7,0,90.94,0S48.25,2.08,44.72,2.75a13.85,13.85,0,0,0-7.26,4.3C36.52,8.11,24.94,27.26,21,34.94l-.23.45.22-.45c-4.93,1-3.63-5.58-6.9-7.73-2.31-1.45-5.53-.31-7.92.16S.8,28.78.55,32c-.2,3.39,1,6.79,4.38,7.62,2.1.51,4.31.82,6.45,1.2,1,.14,2.46.74,3.46.51s1-1,1.68-1.27a4.47,4.47,0,0,1,2.43.32c.05-.14.13-.36.22-.63-.09.27-.15.49-.2.63a4.26,4.26,0,0,1-1.45,1.29.38.38,0,0,1-.11.11,51.19,51.19,0,0,0-7.17,6.1c-3.34,3.68-9,9.26-9.1,12.45S-.29,65.69.06,72.07c.07,3,.9,12.37,1.66,21.21.8,9.33,1.63,18.15,1.71,18.82.14,1.37-.27,2.88.27,4.05s2,1.56,4.24,1.51l18.43.27c15,.18,35.73.46,49.66.65l.14-62.09h0l-.11-.09a.47.47,0,0,1-.1-.1,2.28,2.28,0,0,1-.36-.46,2.82,2.82,0,0,1-.4-1.46,2.45,2.45,0,0,1,2.27-2.58,2.1,2.1,0,0,1,.56.08h.06l.31.13a2.19,2.19,0,0,1,.59.46,2.48,2.48,0,0,1,.25.3,4,4,0,0,1,.2.35v0a2.35,2.35,0,0,1,.14.37,3,3,0,0,1,.08.32v0l0,.17c0,.11,0,.23,0,.35a2.75,2.75,0,0,1-1,2.11l0,5.44c2.08-2.35,4-4.74,7.06-5.35,0,3.23,0,4.84,0,8.07a10.88,10.88,0,0,1,7,1.09c0-3.22,0-4.84,0-8.06a46.18,46.18,0,0,1,7,4.32c0,3.23,0,4.84,0,8.07a46.09,46.09,0,0,0,7,4.32c0-3.23,0-4.84,0-8.07a10.82,10.82,0,0,0,7,1.1c0,3.22,0,4.84,0,8.06,3-.61,5-3,7-5.35,0,3.22,0,4.84,0,8.06-2.06,2.36-4,4.75-7,5.36,0,3.23,0,4.84,0,8.06,3-.61,5-3,7.06-5.35,0,3.22,0,4.84,0,8.06-2.07,2.36-4,4.75-7.06,5.36,0-3.23,0-4.84,0-8.07a10.82,10.82,0,0,1-7-1.09c0,3.22,0,4.84,0,8.06a44.65,44.65,0,0,1-7-4.32c0-3.22,0-4.84,0-8.06a45.38,45.38,0,0,0-7-4.33c0,3.23,0,4.84,0,8.07a10.82,10.82,0,0,0-7-1.1c0-3.22,0-4.84,0-8.06-3,.61-5,3-7,5.36l0,8.06-.06,24.42L91,118.8l65.8-1,17.29-.25c2.23,0,3.65-.31,4.24-1.52s.11-2.7.26-4.06c.11-1,1.55-16.88,2.5-28.6.43-5.2.74-9.56.85-11.52C182.25,65.57,181,63.27,180.83,60.13Zm-18.6-22.58,0,.09a1.17,1.17,0,0,1,0-.11ZM167,57.8c3.24,0,3.82-.46,4.45,2.68a16.62,16.62,0,0,1,0,6.59c-1.27,6.56-9,6.56-14.14,6.56-9.29,0-17.37,2.5-24.73-11.5,6.31-2,13.71-1.83,20-2.92A73.92,73.92,0,0,1,167,57.8ZM10.51,60.64c.63-3.15,1.27-2.7,4.42-2.74a76.07,76.07,0,0,1,14.36,1.42c6.38,1.08,13.77.85,20.05,2.86C42,76.22,34,73.77,24.71,73.77c-5.07,0-12.92,0-14.15-6.54A16.8,16.8,0,0,1,10.51,60.64Zm33.22,50.59h0c-3.12,1.24-10.27,1-13.64,1H26.37c-2.95,0-5.92-.1-8.92-.14h-4c-5.07-.11-5.92-1.92-4.79-7.37,1.08-3.93.43-7.65,4.22-9.2,1.37-.55,6-.76,11.66-.73h1.86c1.91,0,3.88.09,5.89.2,1.2,0,2.41.11,3.62.18a6.78,6.78,0,0,1,1.29.08l2,.16c.63,0,1.28.11,1.92.14s1.23.15,1.83.18c.92.08,1.81.2,2.66.31l1.63.24c.5,0,.87.14,1.3.18l.6.13a4.69,4.69,0,0,1,.78.14.61.61,0,0,0,.27,0l.53.11.79.18C50,102.26,48.78,109.42,43.73,111.23ZM90.91,36.64C70,36.19,23.39,39.05,22.1,39.05S39.27,8,39.27,8L91,6.07l51.6,1.81s18.66,31.06,17.21,31.06S111.86,36.12,90.91,36.64Zm77.72,75.15v0c-4,0-7.88.17-11.83.24H152c-3.4,0-10.54.29-13.62-.91-4.45-1.61-6-7.31-7.24-12.13-.18-.67-.35-1.32-.51-2a3.81,3.81,0,0,1,.51-.12,2.72,2.72,0,0,1,.58-.13l1.61-.29,1.09-.18a1.21,1.21,0,0,0,.38,0l1.59-.24h.15l1.66-.23c1.38-.15,2.83-.29,4.29-.4a10.4,10.4,0,0,0,1.27-.09c2.32-.18,4.69-.35,7-.42l1.81-.11h1.33l1.55-.07h1.23c6-.11,11,.15,12.38.69,3.8,1.5,3.11,5.22,4.31,9.2C174.55,110,173.7,111.79,168.63,111.79ZM113.91,83.55c0-3.23,0-4.84,0-8.07a10.84,10.84,0,0,1-7.05-1.09c0,3.22,0,4.84,0,8.06A10.82,10.82,0,0,0,113.91,83.55Zm-7-1.1a44.2,44.2,0,0,1-7-4.32c0,3.23,0,4.84,0,8.07a45.7,45.7,0,0,0,7,4.32C106.85,87.29,106.86,85.68,106.87,82.45ZM92.81,65.74c0,3.23,0,4.84,0,8.07a46.09,46.09,0,0,1,7,4.32c0-3.22,0-4.84,0-8.06A45,45,0,0,0,92.81,65.74Zm14.07,8.65c0,3.22,0,4.84,0,8.06a10.82,10.82,0,0,0,7,1.1c0-3.23,0-4.84,0-8.07A10.84,10.84,0,0,1,106.88,74.39Zm-7,3.74c0,3.23,0,4.84,0,8.07a45.7,45.7,0,0,0,7,4.32c0-3.23,0-4.84,0-8.07A44.2,44.2,0,0,1,99.83,78.13Zm-7-12.39c0,3.23,0,4.84,0,8.07a46.09,46.09,0,0,1,7,4.32c0-3.22,0-4.84,0-8.06A45,45,0,0,0,92.81,65.74Zm14.07,8.65c0,3.22,0,4.84,0,8.06a10.82,10.82,0,0,0,7,1.1c0-3.23,0-4.84,0-8.07A10.84,10.84,0,0,1,106.88,74.39Zm-7,3.74c0,3.23,0,4.84,0,8.07a45.7,45.7,0,0,0,7,4.32c0-3.23,0-4.84,0-8.07A44.2,44.2,0,0,1,99.83,78.13Zm-7-12.39c0,3.23,0,4.84,0,8.07a46.09,46.09,0,0,1,7,4.32c0-3.22,0-4.84,0-8.06A45,45,0,0,0,92.81,65.74Zm14.07,8.65c0,3.22,0,4.84,0,8.06a10.82,10.82,0,0,0,7,1.1c0-3.23,0-4.84,0-8.07A10.84,10.84,0,0,1,106.88,74.39Zm-7,3.74c0,3.23,0,4.84,0,8.07a45.7,45.7,0,0,0,7,4.32c0-3.23,0-4.84,0-8.07A44.2,44.2,0,0,1,99.83,78.13Zm-7-12.39c0,3.23,0,4.84,0,8.07a46.09,46.09,0,0,1,7,4.32c0-3.22,0-4.84,0-8.06A45,45,0,0,0,92.81,65.74Zm14.07,8.65c0,3.22,0,4.84,0,8.06a10.82,10.82,0,0,0,7,1.1c0-3.23,0-4.84,0-8.07A10.84,10.84,0,0,1,106.88,74.39Zm-7,3.74c0,3.23,0,4.84,0,8.07a45.7,45.7,0,0,0,7,4.32c0-3.23,0-4.84,0-8.07A44.2,44.2,0,0,1,99.83,78.13Zm-7-12.39c0,3.23,0,4.84,0,8.07a46.09,46.09,0,0,1,7,4.32c0-3.22,0-4.84,0-8.06A45,45,0,0,0,92.81,65.74Zm-7.06,7c0,3.23,0,4.84,0,8.07a10.9,10.9,0,0,1,7,1.09c0-3.22,0-4.83,0-8.06A10.86,10.86,0,0,0,85.75,72.71Zm-7-2.72h0c0,2.85,0,4.43,0,7v1.09c2.06-2.35,4-4.75,7-5.36,0-3.22,0-4.84,0-8.06C82.75,65.26,80.79,67.64,78.72,70Zm28.16,4.4c0,3.22,0,4.84,0,8.06a10.82,10.82,0,0,0,7,1.1c0-3.23,0-4.84,0-8.07A10.84,10.84,0,0,1,106.88,74.39Zm-7,3.74c0,3.23,0,4.84,0,8.07a45.7,45.7,0,0,0,7,4.32c0-3.23,0-4.84,0-8.07A44.2,44.2,0,0,1,99.83,78.13Zm-7-12.39c0,3.23,0,4.84,0,8.07a46.09,46.09,0,0,1,7,4.32c0-3.22,0-4.84,0-8.06A45,45,0,0,0,92.81,65.74Zm14.07,8.65c0,3.22,0,4.84,0,8.06a10.82,10.82,0,0,0,7,1.1c0-3.23,0-4.84,0-8.07A10.84,10.84,0,0,1,106.88,74.39Z" style="fill:#fff"/></g></g></svg>