<svg xmlns="http://www.w3.org/2000/svg" viewBox="0 0 300 300"><title>Asset 16</title><g id="Layer_2" data-name="Layer 2"><g id="Layer_1-2" data-name="Layer 1"><circle fill="#900" cx="150" cy="150" r="150"/><path fill="#fff" d="M84.87,122.14l-.42.78c-.12.24-.23.45-.33.66s-.19.39-.26.54-.12.28-.16.39c-.11.33-.2.62-.27.86a1.77,1.77,0,0,0-.08.25c0,.14-.08.25-.11.36a1,1,0,0,0,0,.16,1.31,1.31,0,0,1,0,.15c-.07.23-.13.42-.18.55a4.57,4.57,0,0,0-2.26-.29c-.67.26-.79.91-1.57,1.11-.94.2-2.31-.32-3.21-.45-2-.33-4-.59-6-1-3.16-.71-4.26-3.66-4.08-6.61.21-2.76,3-3.67,5.24-4s5.24-1.4,7.33-.14C81.5,117.29,80.29,123,84.87,122.14Z"/><path fill="#fff" d="M216.26,124.41h0c.11.32.19.6.28.85C216.46,125,216.37,124.73,216.26,124.41Z"/><path fill="#fff" d="M233.56,144c-.18-2.76-6.58-8.68-8.42-10.49a84.14,84.14,0,0,0-6.92-5.76c-.85-.53-1-.53-1.24-1a3,3,0,0,1-.12-.36c-.07-.27-.18-.63-.33-1.14-.09-.25-.17-.53-.28-.85a17,17,0,0,0-1.18-2.37c-3.7-6.69-14.44-23.29-15.33-24.2A13.24,13.24,0,0,0,193,94.07c-3.32-.55-36.72-2.3-43-2.3s-39.7,1.81-43,2.4a13,13,0,0,0-6.74,3.72c-.89.93-11.64,17.57-15.3,24.25-.16.28-.29.54-.43.78s-.23.45-.33.66-.19.37-.26.54-.12.28-.16.39c-.11.33-.2.62-.27.86a1.77,1.77,0,0,0-.08.25c0,.14-.08.25-.11.36a1,1,0,0,0,0,.16,1.31,1.31,0,0,1,0,.15,5.44,5.44,0,0,1-.17.55A4,4,0,0,1,81.62,128l-.09.09a46.31,46.31,0,0,0-6.68,5.3c-3.07,3.22-8.29,8.06-8.43,10.83s-1.32,4.7-1,10.24c.1,2.65.86,10.75,1.58,18.44.73,8.1,1.52,15.77,1.58,16.36.14,1.19-.26,2.5.26,3.52s1.85,1.35,3.93,1.31l17.16.23c22.77.26,60.12.76,60.12.76l61.19-.89,16.09-.22c2.07,0,3.38-.26,3.94-1.32s.11-2.34.23-3.52c.1-.83,1.46-14.67,2.34-24.87.39-4.51.69-8.3.79-10C234.88,148.75,233.69,146.78,233.56,144Zm-12.87-2c3,0,3.56-.4,4.15,2.33a13.82,13.82,0,0,1,0,5.73c-1.18,5.69-8.42,5.69-13.16,5.69-8.66,0-16.15,2.17-23-10,5.87-1.74,12.77-1.58,18.66-2.53A72.15,72.15,0,0,1,220.69,142ZM75.14,144.48c.59-2.73,1.19-2.34,4.11-2.37a76.31,76.31,0,0,1,13.36,1.22c5.93.95,12.8.75,18.66,2.49C104.45,158,97,155.9,88.3,155.9c-4.7,0-12,0-13.16-5.7A14.12,14.12,0,0,1,75.14,144.48Zm30.89,44c-2.88,1.06-9.54.82-12.69.82-1.16,0-2.31,0-3.43,0-2.75,0-5.52-.1-8.31-.13-1.26,0-2.47,0-3.75,0-4.71,0-5.5-1.58-4.45-6.29,1-3.42.4-6.64,3.91-8,1.29-.46,5.56-.66,10.86-.62.57,0,1.16,0,1.74,0,1.75,0,3.59.07,5.47.17,1.11,0,2.23.1,3.36.16.42,0,.81,0,1.21.06l1.81.14c.6,0,1.19.09,1.78.13s1.15.13,1.7.16c.86.06,1.68.16,2.47.26.53.08,1.05.14,1.52.2s.82.14,1.21.17c.2,0,.4.06.57.1s.49.1.72.12a.66.66,0,0,0,.26,0l.49.1.73.16C111.89,180.67,110.74,186.89,106,188.46Zm8.43-30.11v-.09c1.49-1,4-1.83,7.92-2.13C118.42,156.46,116,157.28,114.46,158.35Zm8.77-2.28c.68,0,1.39-.07,2.15-.09C124.63,156,123.91,156,123.23,156.07Zm18.7.1h5.91C146.14,156.18,144.18,156.18,141.93,156.17Zm8.06,0c-.6,0-1.25,0-1.94,0l1.94,0h0Zm0-32.55c-19.43-.39-62.79,2.1-64,2.1s16-27,16-27L150,97l48,1.58s17.34,27,16,27S169.44,123.15,150,123.58ZM222.21,189c-3.75,0-7.33.14-11,.2-1.52,0-3,0-4.51,0-3.16,0-9.8.25-12.66-.79-4.14-1.39-5.58-6.35-6.75-10.55-.16-.58-.3-1.15-.46-1.69a2.56,2.56,0,0,1,.46-.11l.56-.13c.46-.06,1-.16,1.52-.25.32,0,.68-.1,1.05-.17a1.54,1.54,0,0,0,.36,0l1.48-.2h.13l1.55-.2c1.28-.13,2.63-.26,4-.36a11.5,11.5,0,0,0,1.18-.07c2.15-.16,4.35-.3,6.52-.36l1.68-.1h1.22l1.45-.06h1.14c5.63-.1,10.2.13,11.51.59,3.53,1.31,2.9,4.54,4,8C227.71,187.38,226.91,189,222.21,189Z"/><path fill="#fff" d="M89.92,197.58v9a1.58,1.58,0,0,1-1.55,1.58l-19.78,0A1.57,1.57,0,0,1,67,206.66v-11c1.71,1.58,4.21,1.64,5.59,1.64l17.27.24Z"/><path fill="#fff" d="M234.15,194.15v12.34a1.56,1.56,0,0,1-1.58,1.58l-19.77,0a1.6,1.6,0,0,1-1.58-1.58v-9.08l16.09-.23C228.85,197.21,232.44,197.21,234.15,194.15Z"/><path fill="#fff" d="M88.14,181.76a6,6,0,0,1-12,.09,6.08,6.08,0,0,1,6-6.07A6,6,0,0,1,88.14,181.76Z"/><path fill="#fff" d="M230,126c-2,.46-4,.72-6,1-.92.12-2.28.65-3.2.46s-.92-.84-1.57-1.12a4.46,4.46,0,0,0-2.27.31l-.13-.34c-.07-.27-.18-.63-.33-1.14-.09-.25-.17-.53-.28-.85a17,17,0,0,0-1.18-2.37c4.57.83,3.35-4.85,6.41-6.73,2.08-1.26,5.1-.27,7.34.12s5,1.24,5.23,4C234.24,122.35,233.15,125.29,230,126Z"/><path fill="#fff" d="M98.45,181.76a4.27,4.27,0,1,1-4.27-4.28A4.27,4.27,0,0,1,98.45,181.76Z"/><path fill="#fff" d="M223.5,181.64a6,6,0,1,1-6-6A6,6,0,0,1,223.5,181.64Z"/><path fill="#fff" d="M209.15,181.65a4.27,4.27,0,0,1-5.3,4.16,4.21,4.21,0,0,1-3.13-3.15,4.27,4.27,0,1,1,8.43-1Z"/><g id="Layer_2-2" data-name="Layer 2"><path fill="#900" d="M155.45,180c-.37.09-.74.17-1.12.24a1.79,1.79,0,0,0-.7,3.24,1.78,1.78,0,0,0,1.36.3c.45-.08.89-.18,1.33-.29a1.8,1.8,0,1,0-.87-3.49Z"/><path fill="#900" d="M168.76,155.83A1.82,1.82,0,0,0,171,157a1.81,1.81,0,0,0,1.14-2.28c-.14-.43-.3-.86-.47-1.28a1.8,1.8,0,1,0-3.34,1.34C168.51,155.11,168.65,155.47,168.76,155.83Z"/><path fill="#900" d="M161.3,177.39c-.31.21-.64.41-1,.6a1.8,1.8,0,0,0-.66,2.46,1.68,1.68,0,0,0,.52.57,1.81,1.81,0,0,0,1.94.09c.39-.23.78-.47,1.16-.72a1.8,1.8,0,1,0-2-3Z"/><path fill="#900" d="M173.3,160.86a1.8,1.8,0,1,0-3.6.14c0,.38,0,.77,0,1.15a1.83,1.83,0,0,0,.77,1.51,1.78,1.78,0,0,0,1,.33,1.8,1.8,0,0,0,1.84-1.76C173.32,161.77,173.32,161.31,173.3,160.86Z"/><path fill="#900" d="M168.47,172.65A1.81,1.81,0,0,0,166,173c-.23.31-.47.61-.71.9a1.8,1.8,0,0,0,.2,2.54l.13.1a1.8,1.8,0,0,0,2.41-.31c.29-.34.58-.7.85-1.07A1.79,1.79,0,0,0,168.47,172.65Z"/><path fill="#900" d="M171.12,166.15a1.8,1.8,0,0,0-2.26,1.18c-.11.36-.24.72-.37,1.08a1.79,1.79,0,0,0,.64,2.11,1.39,1.39,0,0,0,.4.21,1.8,1.8,0,0,0,2.32-1c.16-.42.31-.86.45-1.29A1.8,1.8,0,0,0,171.12,166.15Z"/><path fill="#900" d="M147.6,180.22a18.58,18.58,0,0,1-4.62-1.47l0,0c-.34-.16-.69-.33-1-.52h0a19.76,19.76,0,0,1-1.79-1.12,18.8,18.8,0,0,1-4.53-26.17,18.44,18.44,0,0,1,4.61-4.59l.07,0a18.81,18.81,0,0,1,21.08-.17l-1.4,2c-.39.57-.15,1,.53.92l6.11-.55a1,1,0,0,0,.91-1.31l-1.64-5.91c-.18-.67-.65-.74-1-.18l-1.41,2a22.23,22.23,0,0,0-16.29-3.47c-.58.1-1.15.23-1.71.37h0l-.06,0A22.11,22.11,0,0,0,133,148.31l-.08.09-.3.42-.48.7a.41.41,0,0,1,0,.09,22.23,22.23,0,0,0-3.54,13.09v0c0,.46.05.91.1,1.36a.29.29,0,0,0,0,.09c.05.45.11.91.19,1.36a22.26,22.26,0,0,0,6.26,12l0,0h0A23,23,0,0,0,138,180a22.22,22.22,0,0,0,8.93,3.73,1.8,1.8,0,0,0,.63-3.54Z"/><path fill="#900" d="M149.83,147.18a1.46,1.46,0,0,0-1.46,1.46v14.51L161.64,170a1.46,1.46,0,0,0,2-.63,1.46,1.46,0,0,0-.62-2l-11.7-6V148.64A1.46,1.46,0,0,0,149.83,147.18Z"/></g><path fill="#fff" d="M123.12,186.26h-8.66v-15.5c1.18,3.81,2.8,8.47,4,11.75A6.08,6.08,0,0,0,123.12,186.26Z"/><path fill="#fff" d="M186.81,166.32c.15-.58.33-1.22.49-1.9v21.84H176.66a6.18,6.18,0,0,0,4.92-3.82C183.28,177.74,185.88,170.11,186.81,166.32Z"/></g></g></svg>
