<svg xmlns="http://www.w3.org/2000/svg" viewBox="0 0 169.3 116.47"><title>Asset 22</title><g id="Layer_2" data-name="Layer 2"><g id="Layer_1-2" data-name="Layer 1"><path fill="#fff" d="M168.21,52.28c-.18-2.77-6.59-8.68-8.43-10.5A84.21,84.21,0,0,0,152.87,36c-.85-.53-1-.53-1.25-1.05,0-.1-.07-.21-.11-.36l.13.35a4.36,4.36,0,0,1,2.27-.31c.65.27.78.91,1.57,1.11s2.28-.33,3.19-.46c2-.33,4-.59,6-1.05,3.15-.74,4.23-3.68,4-6.63-.21-2.74-3-3.65-5.24-4s-5.26-1.39-7.33-.13c-3.06,1.88-1.84,7.56-6.41,6.73C146,23.57,135.28,7,134.39,6.06a13.17,13.17,0,0,0-6.78-3.75C124.29,1.75,90.89,0,84.6,0s-39.71,1.82-43,2.41a12.91,12.91,0,0,0-6.74,3.71c-.89.93-11.64,17.57-15.3,24.25l-.43.78c.12-.24.27-.5.42-.78-4.58.84-3.37-4.85-6.42-6.71C11,22.4,8,23.39,5.76,23.79s-5,1.24-5.23,4c-.19,2.95.91,5.9,4.07,6.62,2,.46,4,.72,6,1.05.9.12,2.27.64,3.21.44.78-.19.9-.85,1.57-1.11a4.47,4.47,0,0,1,2.26.3c0-.14.11-.32.18-.56a5.77,5.77,0,0,1-.17.56,3.84,3.84,0,0,1-1.35,1.11l-.1.1a47.43,47.43,0,0,0-6.68,5.3c-3.06,3.22-8.28,8.06-8.42,10.82s-1.32,4.71-1,10.24C.15,65.3.91,73.4,1.63,81.1c.73,8.1,1.52,15.76,1.58,16.36C3.34,98.64,3,100,3.47,101s1.85,1.34,3.92,1.31c.66,0,7.6.09,17.17.23,22.77.26,60.12.75,60.12.75s38.52-.55,61.19-.89l16.09-.22c2.07,0,3.38-.26,3.94-1.32s.11-2.33.23-3.52c.1-.83,1.46-14.67,2.33-24.87.4-4.5.7-8.29.79-10C169.53,57,168.34,55,168.21,52.28Zm-17.3-19.63c.11.32.19.59.27.84-.09-.25-.17-.54-.29-.86Zm4.43,17.59c3,0,3.56-.39,4.15,2.33a14.17,14.17,0,0,1,0,5.73C158.3,64,151.07,64,146.33,64c-8.66,0-16.15,2.17-23-10,5.86-1.74,12.77-1.58,18.66-2.53A72.94,72.94,0,0,1,155.34,50.24ZM36.55,6.94,84.64,5.27l48,1.58s17.35,27,16,27-44.57-2.44-64.06-2c-19.43-.4-62.8,2.1-64,2.1S36.55,6.94,36.55,6.94Zm69.14,58.27a1.79,1.79,0,0,1-1.61-.24,1.81,1.81,0,0,1-.67-.9c-.12-.36-.25-.73-.39-1.08a1.8,1.8,0,0,1,3.34-1.34c.17.42.33.86.47,1.29A1.8,1.8,0,0,1,105.69,65.21ZM9.79,52.71C10.38,50,11,50.38,13.9,50.34a76.4,76.4,0,0,1,13.36,1.22c5.93.95,12.79.76,18.66,2.5C39.1,66.27,31.61,64.13,23,64.13c-4.7,0-12,0-13.16-5.69A13.82,13.82,0,0,1,9.79,52.71Zm30.89,44c-2.89,1.06-9.54.83-12.69.83-1.16,0-2.31,0-3.43,0-2.76,0-5.52-.1-8.31-.12-1.26,0-2.47,0-3.76,0C7.79,97.32,7,95.74,8.05,91c1-3.42.39-6.65,3.91-8,1.29-.45,5.56-.65,10.86-.61.56,0,1.16,0,1.74,0,1.75,0,3.59.07,5.47.17,1.11,0,2.23.1,3.36.16.41,0,.81,0,1.21.07.62,0,1.22.09,1.81.13l1.78.14c.59.06,1.15.12,1.7.16.85.06,1.68.16,2.47.26l1.52.19c.42.08.82.14,1.21.18a4.49,4.49,0,0,1,.57.1c.26,0,.49.09.71.12a.68.68,0,0,0,.26,0l.5.1c.27.06.49.09.73.16C46.54,88.9,45.39,95.12,40.68,96.69Zm43-6.15A1.8,1.8,0,0,1,81.61,92a22.25,22.25,0,0,1-8.92-3.74,23,23,0,0,1-2.87-2.4h0l0,0a22.13,22.13,0,0,1-6.26-12c-.08-.46-.15-.91-.2-1.36,0,0,0-.06,0-.09,0-.45-.09-.91-.11-1.36v0a22.23,22.23,0,0,1,3.55-13.09.56.56,0,0,0,0-.08c.15-.24.31-.47.48-.71l.3-.41a.39.39,0,0,1,.08-.1A22.23,22.23,0,0,1,80,48.29l.07,0h0c.56-.14,1.13-.26,1.7-.36A22.25,22.25,0,0,1,98,51.37l1.41-2c.39-.57.86-.49,1,.17l1.64,5.91a1,1,0,0,1-.91,1.32l-6.11.55c-.69.06-.93-.35-.53-.92l1.4-2a18.81,18.81,0,0,0-21.09.17l-.06,0a18.78,18.78,0,0,0-.08,30.77,19.76,19.76,0,0,0,1.79,1.12h0c.33.18.68.36,1,.52l0,0a19,19,0,0,0,4.62,1.46A1.79,1.79,0,0,1,83.7,90.54ZM83,71.39V56.88a1.46,1.46,0,1,1,2.91,0V69.61l11.69,6A1.46,1.46,0,0,1,97,78.41a1.33,1.33,0,0,1-.66-.17Zm8,20.3c-.44.11-.89.2-1.33.29a1.82,1.82,0,0,1-1.37-.3A1.8,1.8,0,0,1,89,88.44c.38-.07.75-.15,1.12-.25a1.8,1.8,0,0,1,.87,3.5Zm7-3.06c-.37.25-.76.49-1.16.71A1.79,1.79,0,1,1,95,86.23c.33-.19.65-.4,1-.61a1.8,1.8,0,0,1,2,3Zm5.55-5.22c-.28.36-.56.72-.86,1.07a1.8,1.8,0,0,1-2.4.3l-.13-.1a1.8,1.8,0,0,1-.21-2.54c.25-.29.49-.59.72-.89a1.79,1.79,0,0,1,2.52-.36A1.81,1.81,0,0,1,103.48,83.41Zm3.46-6.77c-.13.43-.28.86-.44,1.29a1.81,1.81,0,0,1-2.33,1,2.42,2.42,0,0,1-.39-.21,1.81,1.81,0,0,1-.65-2.12c.14-.35.27-.72.38-1.08a1.8,1.8,0,1,1,3.43,1.08Zm-.82-4.42a1.81,1.81,0,0,1-1.76-1.84c0-.38,0-.76,0-1.14a1.8,1.8,0,0,1,3.6-.15c0,.46,0,.92,0,1.37A1.8,1.8,0,0,1,106.12,72.22Zm50.74,25c-3.76,0-7.34.13-11,.19-1.52,0-3,0-4.51,0-3.16,0-9.8.26-12.67-.79-4.13-1.38-5.58-6.35-6.74-10.54-.16-.58-.31-1.15-.47-1.7a4,4,0,0,1,.47-.11c.18,0,.36-.08.56-.12.45-.06,1-.16,1.52-.26l1-.16a1.08,1.08,0,0,0,.35,0l1.49-.2h.13l1.55-.19c1.28-.14,2.63-.26,4-.36.41,0,.79,0,1.19-.07,2.15-.17,4.34-.3,6.52-.36l1.68-.1h1.22c.49,0,.95,0,1.44-.06h1.15c5.63-.1,10.2.12,11.51.59,3.53,1.31,2.9,4.53,4,8C162.35,95.62,161.56,97.19,156.86,97.19Z"/><path fill="#fff" d="M7.26,105.58c-1.38,0-3.88-.07-5.6-1.65v11a1.58,1.58,0,0,0,1.58,1.58l19.78,0a1.58,1.58,0,0,0,1.54-1.58v-9h0Z"/><path fill="#fff" d="M162,105.45l-16.08.23v9.08a1.59,1.59,0,0,0,1.57,1.58l19.78,0a1.56,1.56,0,0,0,1.58-1.58V102.39C167.09,105.45,163.5,105.45,162,105.45Z"/><path fill="#fff" d="M16.76,84a6.09,6.09,0,0,0-6,6.08,6,6,0,1,0,6-6.08Z"/><path fill="#fff" d="M28.82,85.72A4.27,4.27,0,1,0,33.09,90,4.27,4.27,0,0,0,28.82,85.72Z"/><path fill="#fff" d="M152.15,83.89a6,6,0,1,0,6,6A6,6,0,0,0,152.15,83.89Z"/><path fill="#fff" d="M139.53,85.62a4.29,4.29,0,0,0-4.16,5.27,4.23,4.23,0,0,0,3.13,3.16,4.28,4.28,0,1,0,1-8.43Z"/></g></g></svg>
