<svg xmlns="http://www.w3.org/2000/svg" xmlns:xlink="http://www.w3.org/1999/xlink" viewBox="0 0 300 300"><defs><style>.cls-1,.cls-6{fill:none;}.cls-2{fill:#900;}.cls-3{fill:#f4f4f7;}.cls-4{fill:#fff;}.cls-5{clip-path:url(#clip-path);}.cls-6{stroke:#4d595f;stroke-linecap:round;stroke-miterlimit:10;stroke-width:6px;}.cls-7{clip-path:url(#clip-path-2);}.cls-8{clip-path:url(#clip-path-3);}.cls-9{clip-path:url(#clip-path-4);}.cls-10{clip-path:url(#clip-path-5);}.cls-11{clip-path:url(#clip-path-6);}.cls-12{clip-path:url(#clip-path-7);}</style><clipPath id="clip-path"><polygon fill="#900" points="104.63 63.18 99.33 63.18 99.33 53.3 120.62 53.3 120.62 74.45 104.45 74.45 104.63 63.18"/></clipPath><clipPath id="clip-path-2"><polygon fill="#900" points="82.16 63.18 76.86 63.18 76.86 53.3 98.16 53.3 98.16 74.45 81.99 74.45 82.16 63.18"/></clipPath><clipPath id="clip-path-3"><polygon fill="#900" points="127.1 63.18 121.8 63.18 121.8 53.3 143.09 53.3 143.09 74.45 126.92 74.45 127.1 63.18"/></clipPath><clipPath id="clip-path-4"><polygon fill="#900" points="149.56 63.18 144.26 63.18 144.26 53.3 165.56 53.3 165.56 74.45 149.39 74.45 149.56 63.18"/></clipPath><clipPath id="clip-path-5"><polygon fill="#900" points="194.5 63.18 189.2 63.18 189.2 53.3 210.49 53.3 210.49 74.45 194.32 74.45 194.5 63.18"/></clipPath><clipPath id="clip-path-6"><polygon fill="#900" points="216.97 63.18 211.66 63.18 211.66 53.3 232.96 53.3 232.96 74.45 216.79 74.45 216.97 63.18"/></clipPath><clipPath id="clip-path-7"><polygon fill="#900" points="172.03 63.18 166.73 63.18 166.73 53.3 188.03 53.3 188.03 74.45 171.85 74.45 172.03 63.18"/></clipPath></defs><title>Asset 10</title><g id="Layer_2" data-name="Layer 2"><g id="Layer_1-2" data-name="Layer 1"><circle fill="#fff" cx="150" cy="150" r="150"/><path class="cls-3" d="M94.33,63.18H215.48A25.52,25.52,0,0,1,241,88.7V198.27a45.41,45.41,0,0,1-45.41,45.41H92.32a23.5,23.5,0,0,1-23.5-23.5V88.7A25.51,25.51,0,0,1,94.33,63.18Z"/><g id="GANCHOS"><path class="cls-4" d="M107.22,70.94a2.71,2.71,0,1,0,2.71-2.71A2.71,2.71,0,0,0,107.22,70.94Z"/><g class="cls-5"><path class="cls-6" d="M110,70.92a7.74,7.74,0,1,0-7.74-7.74"/></g><path class="cls-4" d="M84.75,70.94a2.71,2.71,0,1,0,2.71-2.71A2.71,2.71,0,0,0,84.75,70.94Z"/><g class="cls-7"><path class="cls-6" d="M87.51,70.92a7.74,7.74,0,1,0-7.74-7.74"/></g><path class="cls-4" d="M129.68,70.94a2.71,2.71,0,1,0,2.71-2.71A2.72,2.72,0,0,0,129.68,70.94Z"/><g class="cls-8"><path class="cls-6" d="M132.44,70.92a7.74,7.74,0,1,0-7.73-7.74"/></g><circle class="cls-4" cx="154.86" cy="70.94" r="2.71" transform="translate(-9.36 25.72) rotate(-9.22)"/><g class="cls-9"><path class="cls-6" d="M154.91,70.92a7.74,7.74,0,1,0-7.73-7.74"/></g><circle class="cls-4" cx="199.79" cy="70.94" r="2.71" transform="matrix(0.99, -0.16, 0.16, 0.99, -8.78, 32.92)"/><g class="cls-10"><path class="cls-6" d="M199.84,70.92a7.74,7.74,0,1,0-7.73-7.74"/></g><circle class="cls-4" cx="222.26" cy="70.94" r="2.71" transform="translate(-8.49 36.52) rotate(-9.22)"/><g class="cls-11"><path class="cls-6" d="M222.31,70.92a7.74,7.74,0,1,0-7.73-7.74"/></g><circle class="cls-4" cx="177.33" cy="70.94" r="2.71" transform="translate(-9.07 29.32) rotate(-9.22)"/><g class="cls-12"><path class="cls-6" d="M177.38,70.92a7.74,7.74,0,1,0-7.74-7.74"/></g></g><path fill="#fff" d="M103,136.64c-.11.21-.22.4-.31.59l-.26.5c-.08.15-.14.29-.19.4l-.12.3c-.09.25-.15.47-.21.66a.7.7,0,0,0,0,.18c0,.11-.07.19-.09.27a.84.84,0,0,0,0,.12l0,.12c-.06.17-.11.31-.14.42a3.38,3.38,0,0,0-1.71-.23c-.5.2-.6.69-1.18.84a8.33,8.33,0,0,1-2.43-.33c-1.48-.26-3-.45-4.5-.8-2.39-.54-3.22-2.77-3.08-5s2.27-2.77,4-3,4-1,5.54-.1C100.46,133,99.54,137.28,103,136.64Z"/><path fill="#fff" d="M202.26,138.36h0c.09.24.15.46.22.64C202.41,138.81,202.35,138.6,202.26,138.36Z"/><path fill="#fff" d="M215.33,153.19c-.13-2.09-5-6.56-6.36-7.93a63.64,63.64,0,0,0-5.22-4.35c-.65-.4-.77-.4-.95-.79l-.08-.27c-.06-.2-.14-.47-.25-.86-.07-.18-.13-.4-.22-.64a12.89,12.89,0,0,0-.88-1.79c-2.8-5.06-10.92-17.59-11.59-18.28a9.88,9.88,0,0,0-5.12-2.84c-2.51-.42-27.74-1.74-32.49-1.74s-30,1.37-32.51,1.81a9.82,9.82,0,0,0-5.09,2.81c-.67.7-8.8,13.28-11.56,18.32l-.32.59-.26.5c-.07.15-.14.28-.19.4l-.12.3c-.09.25-.15.47-.21.66a.7.7,0,0,0,0,.18c0,.11-.07.19-.09.27a.84.84,0,0,0,0,.12l0,.12c0,.17-.1.31-.13.42a3.09,3.09,0,0,1-1,.84l-.07.07a35.9,35.9,0,0,0-5,4c-2.31,2.44-6.26,6.09-6.36,8.18s-1,3.56-.78,7.74c.08,2,.66,8.12,1.2,13.93.55,6.12,1.14,11.91,1.19,12.36.1.9-.19,1.89.2,2.66s1.4,1,3,1l13,.18c17.2.19,45.42.56,45.42.56l46.23-.67,12.15-.17c1.57,0,2.56-.19,3-1s.08-1.77.17-2.66c.08-.63,1.1-11.08,1.77-18.79.3-3.4.52-6.27.59-7.54C216.33,156.74,215.43,155.26,215.33,153.19Zm-9.72-1.54c2.24,0,2.69-.3,3.14,1.76a10.88,10.88,0,0,1,0,4.33c-.9,4.3-6.37,4.3-9.95,4.3-6.54,0-12.2,1.64-17.35-7.55,4.43-1.32,9.65-1.2,14.1-1.92A55,55,0,0,1,205.61,151.65Zm-110,1.87c.45-2.07.9-1.77,3.11-1.79a57.38,57.38,0,0,1,10.09.92c4.48.72,9.67.57,14.1,1.88-5.15,9.23-10.81,7.61-17.35,7.61-3.56,0-9,0-9.95-4.3A10.47,10.47,0,0,1,95.65,153.52ZM119,186.74c-2.18.8-7.21.63-9.59.63-.87,0-1.74,0-2.59,0-2.08,0-4.17-.08-6.28-.09-1,0-1.86,0-2.83,0-3.56,0-4.16-1.2-3.36-4.75.79-2.58.3-5,3-6,1-.34,4.2-.49,8.2-.46.43,0,.88,0,1.32,0,1.32,0,2.71.05,4.13.13.84,0,1.69.07,2.54.12.32,0,.61,0,.91,0l1.37.11,1.35.1,1.28.12c.65.05,1.27.12,1.87.2l1.15.15c.31.05.61.1.91.13l.43.07c.2,0,.37.08.54.09a.54.54,0,0,0,.2,0l.37.08c.21,0,.37.07.55.12C123.41,180.86,122.55,185.56,119,186.74Zm33.18-49c-14.68-.3-47.44,1.59-48.36,1.59s12.06-20.38,12.06-20.38l36.33-1.26,36.26,1.19s13.1,20.38,12.1,20.38S166.89,137.41,152.17,137.73Zm54.59,49.39c-2.84,0-5.54.1-8.3.14-1.15,0-2.27,0-3.41,0-2.39,0-7.4.2-9.57-.59-3.12-1-4.21-4.8-5.09-8-.12-.44-.23-.87-.36-1.28a2.61,2.61,0,0,1,.36-.08l.42-.1c.34,0,.74-.12,1.15-.19l.79-.12a.86.86,0,0,0,.27,0l1.12-.15h.1l1.17-.15c1-.1,2-.19,3.05-.27a8.67,8.67,0,0,0,.89-.06c1.63-.12,3.29-.22,4.93-.27l1.27-.07h.92c.37,0,.72,0,1.09-.05h.87c4.25-.07,7.7.1,8.69.45,2.67,1,2.19,3.42,3,6C210.91,185.93,210.31,187.12,206.76,187.12Z"/><path fill="#fff" d="M106.81,193.63v6.84a1.19,1.19,0,0,1-1.16,1.19l-14.94,0a1.19,1.19,0,0,1-1.19-1.19v-8.28a6.13,6.13,0,0,0,4.22,1.25l13.05.17Z"/><path fill="#fff" d="M215.78,191.05v9.32a1.18,1.18,0,0,1-1.2,1.19l-14.93,0a1.21,1.21,0,0,1-1.2-1.19v-6.86l12.16-.17C211.78,193.36,214.49,193.36,215.78,191.05Z"/><path fill="#fff" d="M105.47,181.69a4.53,4.53,0,0,1-9,.06,4.6,4.6,0,0,1,4.5-4.59A4.54,4.54,0,0,1,105.47,181.69Z"/><path fill="#fff" d="M212.64,139.58c-1.48.35-3,.54-4.51.79a8.05,8.05,0,0,1-2.42.35c-.59-.15-.69-.64-1.18-.84a3.29,3.29,0,0,0-1.72.23c0-.07-.05-.16-.09-.26s-.14-.47-.25-.86c-.07-.18-.13-.4-.22-.64a12.89,12.89,0,0,0-.88-1.79c3.45.62,2.52-3.67,4.84-5.09,1.57-.95,3.85-.2,5.54.1s3.8.93,3.95,3C215.84,136.8,215,139,212.64,139.58Z"/><path fill="#fff" d="M113.26,181.68a3.23,3.23,0,1,1-3.23-3.23A3.23,3.23,0,0,1,113.26,181.68Z"/><path fill="#fff" d="M207.73,181.6a4.53,4.53,0,1,1-4.53-4.53A4.53,4.53,0,0,1,207.73,181.6Z"/><path fill="#fff" d="M196.89,181.6a3.23,3.23,0,0,1-4,3.15,3.19,3.19,0,0,1-2.37-2.39,3.24,3.24,0,0,1,3.15-4A3.21,3.21,0,0,1,196.89,181.6Z"/></g></g></svg>
