<svg xmlns="http://www.w3.org/2000/svg" xmlns:xlink="http://www.w3.org/1999/xlink" viewBox="0 0 172.18 191.23"><defs><clipPath id="clip-path" transform="translate(0 0.85)"><polygon points="35.81 9.88 30.51 9.88 30.51 0 51.8 0 51.8 21.15 35.63 21.15 35.81 9.88" style="fill:none"/></clipPath><clipPath id="clip-path-2" transform="translate(0 0.85)"><polygon points="13.34 9.88 8.04 9.88 8.04 0 29.34 0 29.34 21.15 13.17 21.15 13.34 9.88" style="fill:none"/></clipPath><clipPath id="clip-path-3" transform="translate(0 0.85)"><polygon points="58.28 9.88 52.98 9.88 52.98 0 74.27 0 74.27 21.15 58.1 21.15 58.28 9.88" style="fill:none"/></clipPath><clipPath id="clip-path-4" transform="translate(0 0.85)"><polygon points="80.75 9.88 75.44 9.88 75.44 0 96.74 0 96.74 21.15 80.57 21.15 80.75 9.88" style="fill:none"/></clipPath><clipPath id="clip-path-5" transform="translate(0 0.85)"><polygon points="125.68 9.88 120.38 9.88 120.38 0 141.67 0 141.67 21.15 125.5 21.15 125.68 9.88" style="fill:none"/></clipPath><clipPath id="clip-path-6" transform="translate(0 0.85)"><polygon points="148.15 9.88 142.84 9.88 142.84 0 164.14 0 164.14 21.15 147.97 21.15 148.15 9.88" style="fill:none"/></clipPath><clipPath id="clip-path-7" transform="translate(0 0.85)"><polygon points="103.21 9.88 97.91 9.88 97.91 0 119.2 0 119.2 21.15 103.03 21.15 103.21 9.88" style="fill:none"/></clipPath></defs><title>Asset 17</title><g id="Layer_2" data-name="Layer 2"><g id="Layer_1-2" data-name="Layer 1"><path d="M25.51,10.73H146.67a25.52,25.52,0,0,1,25.52,25.52V145.82a45.41,45.41,0,0,1-45.41,45.41H23.5A23.5,23.5,0,0,1,0,167.73V36.25A25.51,25.51,0,0,1,25.51,10.73Z" style="fill:#f4f4f7"/><g id="GANCHOS"><path d="M38.4,17.64a2.71,2.71,0,1,0,2.71-2.71A2.71,2.71,0,0,0,38.4,17.64Z" transform="translate(0 0.85)" style="fill:#fff"/><g style="clip-path:url(#clip-path)"><path d="M41.16,17.62a7.74,7.74,0,1,0-7.74-7.74" transform="translate(0 0.85)" style="fill:none;stroke:#4d595f;stroke-linecap:round;stroke-miterlimit:10;stroke-width:6px"/></g><path d="M15.93,17.64a2.71,2.71,0,1,0,2.71-2.71A2.71,2.71,0,0,0,15.93,17.64Z" transform="translate(0 0.85)" style="fill:#fff"/><g style="clip-path:url(#clip-path-2)"><path d="M18.69,17.62A7.74,7.74,0,1,0,11,9.88" transform="translate(0 0.85)" style="fill:none;stroke:#4d595f;stroke-linecap:round;stroke-miterlimit:10;stroke-width:6px"/></g><path d="M60.86,17.64a2.71,2.71,0,1,0,2.71-2.71A2.72,2.72,0,0,0,60.86,17.64Z" transform="translate(0 0.85)" style="fill:#fff"/><g style="clip-path:url(#clip-path-3)"><path d="M63.62,17.62a7.74,7.74,0,1,0-7.73-7.74" transform="translate(0 0.85)" style="fill:none;stroke:#4d595f;stroke-linecap:round;stroke-miterlimit:10;stroke-width:6px"/></g><circle cx="86.04" cy="17.64" r="2.71" transform="matrix(0.99, -0.16, 0.16, 0.99, -1.71, 14.86)" style="fill:#fff"/><g style="clip-path:url(#clip-path-4)"><path d="M86.09,17.62a7.74,7.74,0,1,0-7.73-7.74" transform="translate(0 0.85)" style="fill:none;stroke:#4d595f;stroke-linecap:round;stroke-miterlimit:10;stroke-width:6px"/></g><circle cx="130.98" cy="17.64" r="2.71" transform="matrix(0.99, -0.16, 0.16, 0.99, -1.13, 22.06)" style="fill:#fff"/><g style="clip-path:url(#clip-path-5)"><path d="M131,17.62a7.74,7.74,0,1,0-7.73-7.74" transform="translate(0 0.85)" style="fill:none;stroke:#4d595f;stroke-linecap:round;stroke-miterlimit:10;stroke-width:6px"/></g><circle cx="153.44" cy="17.64" r="2.71" transform="matrix(0.99, -0.16, 0.16, 0.99, -0.84, 25.66)" style="fill:#fff"/><g style="clip-path:url(#clip-path-6)"><path d="M153.49,17.62a7.74,7.74,0,1,0-7.73-7.74" transform="translate(0 0.85)" style="fill:none;stroke:#4d595f;stroke-linecap:round;stroke-miterlimit:10;stroke-width:6px"/></g><circle cx="108.51" cy="17.64" r="2.71" transform="translate(-1.42 18.46) rotate(-9.22)" style="fill:#fff"/><g style="clip-path:url(#clip-path-7)"><path d="M108.56,17.62a7.74,7.74,0,1,0-7.74-7.74" transform="translate(0 0.85)" style="fill:none;stroke:#4d595f;stroke-linecap:round;stroke-miterlimit:10;stroke-width:6px"/></g></g><path d="M34.18,83.34c-.11.21-.22.4-.31.59l-.26.5c-.08.15-.14.29-.19.4l-.12.3c-.09.25-.15.47-.21.65A.9.9,0,0,0,33,86c0,.1-.07.19-.09.27a.3.3,0,0,0,0,.12s0,.09,0,.12-.1.31-.14.42A3.38,3.38,0,0,0,31,86.67c-.5.2-.6.69-1.18.84a8,8,0,0,1-2.43-.34c-1.48-.25-3-.44-4.5-.79-2.39-.54-3.22-2.77-3.08-5,.16-2.08,2.27-2.77,3.95-3s4-1.05,5.54-.1C31.64,79.68,30.72,84,34.18,83.34Z" transform="translate(0 0.85)" style="fill:#900"/><path d="M133.44,85.06h0c.09.24.15.46.22.64C133.59,85.51,133.53,85.3,133.44,85.06Z" transform="translate(0 0.85)" style="fill:#900"/><path d="M146.51,99.89c-.13-2.09-5-6.56-6.36-7.93a61.69,61.69,0,0,0-5.22-4.35c-.65-.4-.77-.4-1-.79l-.08-.27-.25-.86c-.07-.18-.13-.4-.22-.64a12.89,12.89,0,0,0-.88-1.79C129.75,78.2,121.63,65.66,121,65a10,10,0,0,0-5.12-2.83c-2.51-.42-27.74-1.75-32.49-1.75s-30,1.38-32.51,1.82A9.82,9.82,0,0,0,45.75,65c-.67.7-8.8,13.27-11.56,18.32l-.32.59-.26.5c-.07.15-.14.28-.19.4l-.12.3c-.09.25-.15.47-.21.65A.9.9,0,0,0,33,86c0,.1-.07.19-.09.27a.3.3,0,0,0,0,.12s0,.09,0,.12-.1.31-.13.42a2.94,2.94,0,0,1-1,.83l-.07.08a35.17,35.17,0,0,0-5.05,4c-2.31,2.44-6.26,6.09-6.36,8.18s-1,3.56-.78,7.73c.08,2,.66,8.13,1.2,13.94.55,6.12,1.14,11.91,1.19,12.36.1.9-.19,1.88.2,2.66s1.4,1,3,1l13,.17c17.2.2,45.42.57,45.42.57l46.23-.67,12.15-.17c1.57,0,2.56-.19,3-1s.08-1.77.17-2.66c.08-.63,1.1-11.08,1.77-18.79.3-3.4.52-6.27.59-7.54C147.51,103.44,146.61,102,146.51,99.89Zm-9.72-1.54c2.24,0,2.69-.3,3.14,1.76a10.88,10.88,0,0,1,0,4.33c-.9,4.3-6.37,4.3-10,4.3-6.54,0-12.2,1.64-17.35-7.55,4.43-1.32,9.65-1.2,14.1-1.92A55,55,0,0,1,136.79,98.35Zm-110,1.87c.45-2.07.9-1.77,3.11-1.8A57.39,57.39,0,0,1,40,99.35c4.48.72,9.67.57,14.1,1.88-5.15,9.23-10.81,7.61-17.35,7.61-3.56,0-9,0-10-4.3A10.47,10.47,0,0,1,26.83,100.22Zm23.34,33.22c-2.18.8-7.21.63-9.59.63-.87,0-1.74,0-2.59,0-2.08,0-4.17-.08-6.28-.09-.95,0-1.86,0-2.83,0-3.56,0-4.15-1.2-3.36-4.75.79-2.58.3-5,2.95-6,1-.34,4.2-.49,8.2-.46.43,0,.88,0,1.32,0,1.32,0,2.71.05,4.13.13.84,0,1.69.07,2.54.12.32,0,.61,0,.91,0l1.37.11c.45,0,.9.07,1.35.1l1.28.12c.65,0,1.27.12,1.87.2l1.15.15c.31,0,.61.1.91.13a2.76,2.76,0,0,1,.43.07c.2,0,.37.08.54.09a.54.54,0,0,0,.2,0l.37.08c.21,0,.37.07.55.12C54.59,127.56,53.73,132.26,50.17,133.44Zm33.18-49C68.67,84.13,35.91,86,35,86S47.05,65.64,47.05,65.64l36.33-1.26,36.26,1.19S132.74,86,131.75,86,98.07,84.11,83.35,84.43Zm54.59,49.38c-2.84,0-5.54.11-8.3.15-1.15,0-2.27,0-3.41,0-2.39,0-7.4.2-9.57-.6-3.12-1-4.21-4.79-5.09-8-.12-.44-.23-.87-.36-1.28a2.61,2.61,0,0,1,.36-.08l.42-.1c.34,0,.74-.12,1.15-.19l.79-.12a.86.86,0,0,0,.27,0l1.12-.15h.1l1.17-.15c1-.1,2-.2,3-.27a8.67,8.67,0,0,0,.89-.06c1.63-.12,3.29-.22,4.93-.27l1.27-.07h.92c.37,0,.72,0,1.09,0h.87c4.25-.07,7.7.1,8.69.45,2.67,1,2.19,3.42,3,6C142.09,132.63,141.49,133.81,137.94,133.81Z" transform="translate(0 0.85)" style="fill:#900"/><path d="M38,140.33v6.84a1.19,1.19,0,0,1-1.16,1.19l-14.94,0a1.19,1.19,0,0,1-1.19-1.19v-8.28a6.13,6.13,0,0,0,4.22,1.25l13,.17Z" transform="translate(0 0.85)" style="fill:#900"/><path d="M147,137.75v9.32a1.18,1.18,0,0,1-1.2,1.19l-14.93,0a1.21,1.21,0,0,1-1.2-1.19v-6.86l12.16-.17C143,140.06,145.67,140.06,147,137.75Z" transform="translate(0 0.85)" style="fill:#900"/><path d="M36.65,128.38a4.53,4.53,0,0,1-9,.07,4.6,4.6,0,0,1,4.5-4.59A4.53,4.53,0,0,1,36.65,128.38Z" transform="translate(0 0.85)" style="fill:#900"/><path d="M143.82,86.28c-1.48.34-3,.54-4.51.79a8.05,8.05,0,0,1-2.42.35c-.59-.15-.69-.64-1.18-.84a3.29,3.29,0,0,0-1.72.23c0-.07-.05-.16-.09-.26l-.25-.86c-.07-.18-.13-.4-.22-.64a12.89,12.89,0,0,0-.88-1.79c3.45.62,2.53-3.67,4.84-5.09,1.57-1,3.85-.2,5.54.1s3.8.93,3.95,3C147,83.5,146.2,85.72,143.82,86.28Z" transform="translate(0 0.85)" style="fill:#900"/><path d="M44.44,128.38a3.23,3.23,0,1,1-3.23-3.23A3.23,3.23,0,0,1,44.44,128.38Z" transform="translate(0 0.85)" style="fill:#900"/><path d="M138.91,128.29a4.53,4.53,0,1,1-4.53-4.52A4.52,4.52,0,0,1,138.91,128.29Z" transform="translate(0 0.85)" style="fill:#900"/><path d="M128.07,128.3a3.23,3.23,0,1,1-3.22-3.22A3.23,3.23,0,0,1,128.07,128.3Z" transform="translate(0 0.85)" style="fill:#900"/></g></g></svg>