<svg xmlns="http://www.w3.org/2000/svg" viewBox="0 0 321.62 60.41"><title>autowasslogo_white</title><g id="Layer_2" data-name="Layer 2"><g id="Layer_1-2" data-name="Layer 1"><path fill="#900" fill-rule="evenodd" d="M26.78,40.94l8.86,4.44c.73.36.76,1.13.08,1.7-2.71,2.29-5.34,4.62-7.89,7a2.41,2.41,0,0,1-2.5.38L16.38,50a1,1,0,0,1-.2-1.73c2.6-2.34,5.26-4.64,8-6.93a2.6,2.6,0,0,1,2.59-.36M6.45,29.75c1.15.58,2.3,1.17,3.47,1.75.73.37.72,1.12,0,1.68-1.11.9-2.22,1.8-3.3,2.71a2.57,2.57,0,0,1-2.57.37L.59,34.5a.94.94,0,0,1-.11-1.7c1.1-.91,2.2-1.8,3.33-2.7A2.75,2.75,0,0,1,6.45,29.75Zm54-3.22L70.6,31.7c.71.36.57,1.05-.29,1.58-4.09,2.46-8,5-11.8,7.58a3,3,0,0,1-2.72.31L45.4,35.94c-.73-.37-.68-1.11.12-1.64q5.79-3.82,12-7.5A3.42,3.42,0,0,1,60.44,26.53ZM55.65,10.3l6.18,3.19c.68.35.41,1-.6,1.49q-4.5,2.14-8.81,4.38a3.7,3.7,0,0,1-3,.24l-6.41-3.26c-.7-.36-.49-1.05.46-1.52q4.41-2.21,9-4.31A4.11,4.11,0,0,1,55.65,10.3ZM23,13.75,27.5,16c.71.36.54,1.05-.34,1.57-1.84,1.06-3.65,2.15-5.41,3.24a3.24,3.24,0,0,1-2.81.29L14.4,18.83c-.71-.36-.62-1.09.22-1.6,1.8-1.09,3.62-2.16,5.51-3.22A3.53,3.53,0,0,1,23,13.75Zm9.84,6.9,11.6,5.87c.71.36.61,1.08-.22,1.61-4.47,2.84-8.73,5.77-12.8,8.75a2.84,2.84,0,0,1-2.67.33l-11.89-6c-.73-.36-.72-1.12,0-1.66Q23.15,25.14,30,20.92A3.31,3.31,0,0,1,32.88,20.65Z"/><path fill="#900" fill-rule="evenodd" d="M321.62,35.69a6.44,6.44,0,0,1-.49,2.57,5.58,5.58,0,0,1-1.4,2,6.21,6.21,0,0,1-2.22,1.27,9.25,9.25,0,0,1-2.93.44,13.62,13.62,0,0,1-2.76-.29,10.39,10.39,0,0,1-2.47-.83,5.87,5.87,0,0,1-1.79-1.3,2.46,2.46,0,0,1-.7-1.71V34.2h.68a8.24,8.24,0,0,0,2.24,4.91,6.55,6.55,0,0,0,4.52,1.49,6.48,6.48,0,0,0,1.67-.22,4.47,4.47,0,0,0,1.39-.66,3.4,3.4,0,0,0,1-1.09,2.87,2.87,0,0,0,.37-1.49,3.68,3.68,0,0,0-.93-2.53A11.34,11.34,0,0,0,315,32.47L310.82,30a9.59,9.59,0,0,1-3.06-2.6,5.59,5.59,0,0,1-.9-3.22,5.64,5.64,0,0,1,.48-2.37A5.28,5.28,0,0,1,308.67,20a6,6,0,0,1,2.07-1.17,8.4,8.4,0,0,1,2.69-.4,12.59,12.59,0,0,1,2.56.27,9.69,9.69,0,0,1,2.35.79,5.59,5.59,0,0,1,1.72,1.29,2.48,2.48,0,0,1,.68,1.71v3.62h-.68a8.24,8.24,0,0,0-2.18-4.87,6.4,6.4,0,0,0-4.47-1.46A4.45,4.45,0,0,0,312,20a3.71,3.71,0,0,0-1.24.67,3.47,3.47,0,0,0-.88,1.09,3.07,3.07,0,0,0-.34,1.42,3.45,3.45,0,0,0,.24,1.32,3.8,3.8,0,0,0,.71,1.08,7.28,7.28,0,0,0,1.19,1c.47.33,1,.67,1.62,1l4.16,2.47a19.81,19.81,0,0,1,1.88,1.24,6.55,6.55,0,0,1,1.31,1.25,5.08,5.08,0,0,1,.76,1.41,5.18,5.18,0,0,1,.25,1.69m-24.35,0a6.44,6.44,0,0,1-.49,2.57,5.58,5.58,0,0,1-1.4,2,6.21,6.21,0,0,1-2.22,1.27,9.25,9.25,0,0,1-2.93.44,13.62,13.62,0,0,1-2.76-.29,10.54,10.54,0,0,1-2.47-.83,5.87,5.87,0,0,1-1.79-1.3,2.5,2.5,0,0,1-.7-1.71V34.2h.68a8.29,8.29,0,0,0,2.24,4.91A6.56,6.56,0,0,0,290,40.6a6.46,6.46,0,0,0,1.66-.22,4.47,4.47,0,0,0,1.39-.66,3.4,3.4,0,0,0,1-1.09,2.87,2.87,0,0,0,.37-1.49,3.68,3.68,0,0,0-.93-2.53,11.34,11.34,0,0,0-2.79-2.14L286.47,30a9.59,9.59,0,0,1-3.06-2.6,5.59,5.59,0,0,1-.9-3.22,5.64,5.64,0,0,1,.48-2.37A5.18,5.18,0,0,1,284.33,20a5.86,5.86,0,0,1,2.06-1.17,8.4,8.4,0,0,1,2.69-.4,12.59,12.59,0,0,1,2.56.27,9.55,9.55,0,0,1,2.35.79,5.76,5.76,0,0,1,1.73,1.29,2.52,2.52,0,0,1,.67,1.71v3.62h-.67a8.3,8.3,0,0,0-2.19-4.87,6.39,6.39,0,0,0-4.47-1.46,4.45,4.45,0,0,0-1.45.24,3.71,3.71,0,0,0-1.24.67,3.47,3.47,0,0,0-.88,1.09,3.07,3.07,0,0,0-.34,1.42,3.45,3.45,0,0,0,.24,1.32,3.8,3.8,0,0,0,.71,1.08,7.28,7.28,0,0,0,1.19,1c.47.33,1,.67,1.62,1l4.17,2.47A20.92,20.92,0,0,1,295,31.34a6.55,6.55,0,0,1,1.31,1.25A4.83,4.83,0,0,1,297,34,5.18,5.18,0,0,1,297.27,35.69Zm-22,5.69a4.9,4.9,0,0,1-1.35.16,7.81,7.81,0,0,1-1.34-.13,4.87,4.87,0,0,1-1.55-.59,6.1,6.1,0,0,1-1.56-1.34,7.8,7.8,0,0,1-1.31-2.34c-1-2.67-3.15-7.5-5.58-13.37-4.13,9.59-3.54,8.32-7.45,17.61h-1.52L263.11,19h1l7.45,18.11c.27.64.52,1.17.76,1.61a4,4,0,0,0,.8,1.07,3.22,3.22,0,0,0,.94.61,4.9,4.9,0,0,0,1.22.27ZM222.14,23a13,13,0,0,0-.68-1.61,3.91,3.91,0,0,0-.76-1.07,2.84,2.84,0,0,0-1-.61,5.7,5.7,0,0,0-1.31-.27v-.68l.53,0,.63,0a11.53,11.53,0,0,1,1.5.11,4.69,4.69,0,0,1,1.58.56,5.57,5.57,0,0,1,1.49,1.31A7.28,7.28,0,0,1,225.35,23l4.54,13.06,3.62-10.73L232.7,23a13,13,0,0,0-.68-1.61,3.91,3.91,0,0,0-.76-1.07,2.84,2.84,0,0,0-1-.61,5.72,5.72,0,0,0-1.3-.27v-.68l.52,0,.63,0a11.53,11.53,0,0,1,1.5.11,4.69,4.69,0,0,1,1.58.56,5.57,5.57,0,0,1,1.49,1.31A7.49,7.49,0,0,1,235.92,23l4.53,13.06,5.79-17h1.45l-7.75,22.68h-.67l-5-14.25-4.88,14.25h-.67Zm-32.51,7.21a13.49,13.49,0,0,1,.8-4.68,11,11,0,0,1,2.27-3.75,10.62,10.62,0,0,1,3.52-2.51,12,12,0,0,1,9.17,0,10.54,10.54,0,0,1,3.5,2.51,11.23,11.23,0,0,1,2.25,3.75,14.06,14.06,0,0,1,0,9.35,11.23,11.23,0,0,1-2.25,3.75,10.54,10.54,0,0,1-3.5,2.51,12,12,0,0,1-9.17,0,10.62,10.62,0,0,1-3.52-2.51,11,11,0,0,1-2.27-3.75A13.51,13.51,0,0,1,189.63,30.21Zm17.64,0c0-3.3-.57-5.84-1.7-7.64a5.56,5.56,0,0,0-9.52,0c-1.12,1.8-1.68,4.34-1.68,7.64s.56,5.83,1.68,7.63a5.56,5.56,0,0,0,9.52,0Q207.27,35.14,207.27,30.21ZM183.29,19v1.53h-7.07V41.38h-4.4V20.56h-2.41a4.22,4.22,0,0,0-2.84.9,4,4,0,0,0-1,3.16h-1V21.74a4.21,4.21,0,0,1,.12-1,2.13,2.13,0,0,1,.44-.86,2.42,2.42,0,0,1,.88-.61,3.7,3.7,0,0,1,1.44-.24ZM141.71,32.64a10.12,10.12,0,0,0,1.37,5.54,4.5,4.5,0,0,0,4,2c2.31,0,4-.69,5-2.06s1.57-3.55,1.57-6.5V19h1.7v12.6a17.11,17.11,0,0,1-.48,4.26,8,8,0,0,1-1.54,3.17,6.64,6.64,0,0,1-2.77,2,11.45,11.45,0,0,1-4.18.67q-9.15,0-9.14-10.08V23.44a6,6,0,0,0-.42-2.46,1.93,1.93,0,0,0-2-.93V19h3.72a4.38,4.38,0,0,1,1.47.22,1.93,1.93,0,0,1,1,.73,3.2,3.2,0,0,1,.49,1.36,13.51,13.51,0,0,1,.14,2.1Zm-15.14,4.47a7.19,7.19,0,0,0,1.49,2.37,3.36,3.36,0,0,0,2,1v.84a4.49,4.49,0,0,1-.76.12c-.33,0-.62,0-.86,0a11,11,0,0,1-1.75-.15,6,6,0,0,1-3.52-1.93,7.84,7.84,0,0,1-1.4-2.32c-1.81-4.38-2-4.84-5.18-12.25-4.77,10.68-2.86,6.4-7.45,16.52h-1.69l10-22.35H119Z"/><path fill="#900" fill-rule="evenodd" d="M89.34,0c.48,0,.86,13.52.86,30.21s-.38,30.2-.86,30.2-.86-13.52-.86-30.2S88.87,0,89.34,0"/></g></g></svg>
